#N canvas 872 93 900 796 10;
#X obj 73 -100 adc~ 1;
#X floatatom 174 8 5 0 0 0 - - -, f 5;
#X obj 73 -63 fiddle~ 1924 1 20 3;
#X obj 128 -34 unpack;
#X floatatom 128 8 5 0 0 0 - - -, f 5;
#X obj 9 -38 gemhead;
#X obj 100 10 bng 15 250 50 0 empty empty empty 17 7 0 10 -262144 -1
-1;
#X msg 131 220 width \$1;
#X obj 100 54 counter;
#X floatatom 100 82 5 0 0 0 - - -, f 5;
#X obj 92 115 mod 2;
#X floatatom 86 140 5 0 0 0 - - -, f 5;
#X obj 86 161 select 1 0;
#X msg 159 192 0;
#X floatatom 456 167 5 0 0 0 - - -, f 5;
#X floatatom 503 167 5 0 0 0 - - -, f 5;
#X obj 209 282 loadbang;
#N canvas 439 224 559 484 mcreator3 0;
#X obj 151 238 nxRandom;
#X obj 151 171 delay 1;
#X msg 151 110 bang;
#X msg 113 83 set;
#X obj 112 13 loadbang;
#X obj 151 263 int;
#X obj 151 83 delay 1;
#X obj 281 236 nxRandom;
#X obj 281 169 delay 1;
#X obj 281 261 int;
#X obj 165 346 pack 0 0;
#X msg 165 426 1 0 \$1;
#X msg 165 380 set \$1 \$2;
#X msg 112 51 bang;
#X msg 402 167 adddollar 1;
#X obj 402 139 delay 2;
#X obj 255 430 outlet;
#X obj 170 12 inlet;
#X msg 207 170 -2;
#X msg 236 170 2;
#X msg 337 168 -2;
#X msg 366 168 2;
#X connect 0 0 5 0;
#X connect 1 0 0 0;
#X connect 2 0 18 0;
#X connect 2 0 19 0;
#X connect 2 0 1 0;
#X connect 2 0 8 0;
#X connect 2 0 20 0;
#X connect 2 0 21 0;
#X connect 2 0 15 0;
#X connect 3 0 11 0;
#X connect 3 0 16 0;
#X connect 4 0 13 0;
#X connect 5 0 10 0;
#X connect 6 0 2 0;
#X connect 7 0 9 0;
#X connect 8 0 7 0;
#X connect 9 0 10 1;
#X connect 10 0 12 0;
#X connect 12 0 11 0;
#X connect 12 0 16 0;
#X connect 13 0 3 0;
#X connect 13 0 6 0;
#X connect 14 0 11 0;
#X connect 14 0 16 0;
#X connect 15 0 14 0;
#X connect 17 0 13 0;
#X connect 18 0 0 1;
#X connect 19 0 0 2;
#X connect 20 0 7 1;
#X connect 21 0 7 2;
#X restore 629 307 pd mcreator3;
#X msg 629 342 1 0 \$1;
#X msg 629 273 bang;
#N canvas 439 224 559 484 mcreator3 0;
#X obj 151 238 nxRandom;
#X obj 151 171 delay 1;
#X msg 151 110 bang;
#X msg 113 83 set;
#X obj 112 13 loadbang;
#X obj 151 263 int;
#X obj 151 83 delay 1;
#X obj 281 236 nxRandom;
#X obj 281 169 delay 1;
#X obj 281 261 int;
#X obj 165 346 pack 0 0;
#X msg 165 426 0 -1 \$1;
#X msg 165 380 set \$1 \$2;
#X msg 112 51 bang;
#X msg 402 167 adddollar 1;
#X obj 402 139 delay 2;
#X obj 255 430 outlet;
#X obj 170 12 inlet;
#X msg 207 170 -2;
#X msg 236 170 2;
#X msg 337 168 -2;
#X msg 366 168 2;
#X connect 0 0 5 0;
#X connect 1 0 0 0;
#X connect 2 0 18 0;
#X connect 2 0 19 0;
#X connect 2 0 1 0;
#X connect 2 0 8 0;
#X connect 2 0 20 0;
#X connect 2 0 21 0;
#X connect 2 0 15 0;
#X connect 3 0 11 0;
#X connect 3 0 16 0;
#X connect 4 0 13 0;
#X connect 5 0 10 0;
#X connect 6 0 2 0;
#X connect 7 0 9 0;
#X connect 8 0 7 0;
#X connect 9 0 10 1;
#X connect 10 0 12 0;
#X connect 12 0 11 0;
#X connect 12 0 16 0;
#X connect 13 0 3 0;
#X connect 13 0 6 0;
#X connect 14 0 11 0;
#X connect 14 0 16 0;
#X connect 15 0 14 0;
#X connect 17 0 13 0;
#X connect 18 0 0 1;
#X connect 19 0 0 2;
#X connect 20 0 7 1;
#X connect 21 0 7 2;
#X restore 548 308 pd mcreator3;
#X msg 548 343 0 -1 \$1;
#X msg 548 274 bang;
#N canvas 439 224 559 484 mcreator3 0;
#X obj 151 238 nxRandom;
#X obj 151 171 delay 1;
#X msg 151 110 bang;
#X msg 113 83 set;
#X obj 112 13 loadbang;
#X obj 151 263 int;
#X obj 151 83 delay 1;
#X obj 281 236 nxRandom;
#X obj 281 169 delay 1;
#X obj 281 261 int;
#X obj 165 346 pack 0 0;
#X msg 165 426 -1 0 \$1;
#X msg 165 380 set \$1 \$2;
#X msg 112 51 bang;
#X msg 402 167 adddollar 1;
#X obj 402 139 delay 2;
#X obj 255 430 outlet;
#X obj 170 12 inlet;
#X msg 207 170 -2;
#X msg 236 170 2;
#X msg 337 168 -2;
#X msg 366 168 2;
#X connect 0 0 5 0;
#X connect 1 0 0 0;
#X connect 2 0 18 0;
#X connect 2 0 19 0;
#X connect 2 0 1 0;
#X connect 2 0 8 0;
#X connect 2 0 20 0;
#X connect 2 0 21 0;
#X connect 2 0 15 0;
#X connect 3 0 11 0;
#X connect 3 0 16 0;
#X connect 4 0 13 0;
#X connect 5 0 10 0;
#X connect 6 0 2 0;
#X connect 7 0 9 0;
#X connect 8 0 7 0;
#X connect 9 0 10 1;
#X connect 10 0 12 0;
#X connect 12 0 11 0;
#X connect 12 0 16 0;
#X connect 13 0 3 0;
#X connect 13 0 6 0;
#X connect 14 0 11 0;
#X connect 14 0 16 0;
#X connect 15 0 14 0;
#X connect 17 0 13 0;
#X connect 18 0 0 1;
#X connect 19 0 0 2;
#X connect 20 0 7 1;
#X connect 21 0 7 2;
#X restore 468 310 pd mcreator3;
#X msg 468 345 -1 0 \$1;
#X msg 468 276 bang;
#N canvas 439 224 559 484 mcreator3 0;
#X obj 151 238 nxRandom;
#X obj 151 171 delay 1;
#X msg 151 110 bang;
#X msg 113 83 set;
#X obj 112 13 loadbang;
#X obj 151 263 int;
#X obj 151 83 delay 1;
#X obj 281 236 nxRandom;
#X obj 281 169 delay 1;
#X obj 281 261 int;
#X obj 165 346 pack 0 0;
#X msg 165 426 0 0 \$1;
#X msg 165 380 set \$1 \$2;
#X msg 112 51 bang;
#X msg 402 167 adddollar 1;
#X obj 402 139 delay 2;
#X obj 255 430 outlet;
#X obj 170 12 inlet;
#X msg 207 170 -2;
#X msg 236 170 2;
#X msg 337 168 -2;
#X msg 366 168 2;
#X connect 0 0 5 0;
#X connect 1 0 0 0;
#X connect 2 0 18 0;
#X connect 2 0 19 0;
#X connect 2 0 1 0;
#X connect 2 0 8 0;
#X connect 2 0 20 0;
#X connect 2 0 21 0;
#X connect 2 0 15 0;
#X connect 3 0 11 0;
#X connect 3 0 16 0;
#X connect 4 0 13 0;
#X connect 5 0 10 0;
#X connect 6 0 2 0;
#X connect 7 0 9 0;
#X connect 8 0 7 0;
#X connect 9 0 10 1;
#X connect 10 0 12 0;
#X connect 12 0 11 0;
#X connect 12 0 16 0;
#X connect 13 0 3 0;
#X connect 13 0 6 0;
#X connect 14 0 11 0;
#X connect 14 0 16 0;
#X connect 15 0 14 0;
#X connect 17 0 13 0;
#X connect 18 0 0 1;
#X connect 19 0 0 2;
#X connect 20 0 7 1;
#X connect 21 0 7 2;
#X restore 387 311 pd mcreator3;
#X msg 387 346 0 0 \$1;
#X msg 387 277 bang;
#N canvas 439 224 559 484 mcreator3 0;
#X obj 151 238 nxRandom;
#X obj 151 171 delay 1;
#X msg 151 110 bang;
#X msg 113 83 set;
#X obj 112 13 loadbang;
#X obj 151 263 int;
#X obj 151 83 delay 1;
#X obj 281 236 nxRandom;
#X obj 281 169 delay 1;
#X obj 281 261 int;
#X obj 165 346 pack 0 0;
#X msg 165 426 0 0 \$1;
#X msg 165 380 set \$1 \$2;
#X msg 112 51 bang;
#X msg 402 167 adddollar 1;
#X obj 402 139 delay 2;
#X obj 255 430 outlet;
#X obj 170 12 inlet;
#X msg 207 170 -2;
#X msg 236 170 2;
#X msg 337 168 -2;
#X msg 366 168 2;
#X connect 0 0 5 0;
#X connect 1 0 0 0;
#X connect 2 0 18 0;
#X connect 2 0 19 0;
#X connect 2 0 1 0;
#X connect 2 0 8 0;
#X connect 2 0 20 0;
#X connect 2 0 21 0;
#X connect 2 0 15 0;
#X connect 3 0 11 0;
#X connect 3 0 16 0;
#X connect 4 0 13 0;
#X connect 5 0 10 0;
#X connect 6 0 2 0;
#X connect 7 0 9 0;
#X connect 8 0 7 0;
#X connect 9 0 10 1;
#X connect 10 0 12 0;
#X connect 12 0 11 0;
#X connect 12 0 16 0;
#X connect 13 0 3 0;
#X connect 13 0 6 0;
#X connect 14 0 11 0;
#X connect 14 0 16 0;
#X connect 15 0 14 0;
#X connect 17 0 13 0;
#X connect 18 0 0 1;
#X connect 19 0 0 2;
#X connect 20 0 7 1;
#X connect 21 0 7 2;
#X restore 790 303 pd mcreator3;
#X msg 790 338 0 0 \$1;
#X msg 790 269 bang;
#N canvas 439 224 559 484 mcreator3 0;
#X obj 151 238 nxRandom;
#X obj 151 171 delay 1;
#X msg 151 110 bang;
#X msg 113 83 set;
#X obj 112 13 loadbang;
#X obj 151 263 int;
#X obj 151 83 delay 1;
#X obj 281 236 nxRandom;
#X obj 281 169 delay 1;
#X obj 281 261 int;
#X obj 165 346 pack 0 0;
#X msg 165 426 1 1 \$1;
#X msg 165 380 set \$1 \$2;
#X msg 112 51 bang;
#X msg 402 167 adddollar 1;
#X obj 402 139 delay 2;
#X obj 255 430 outlet;
#X obj 170 12 inlet;
#X msg 207 170 -2;
#X msg 236 170 2;
#X msg 337 168 -2;
#X msg 366 168 2;
#X connect 0 0 5 0;
#X connect 1 0 0 0;
#X connect 2 0 18 0;
#X connect 2 0 19 0;
#X connect 2 0 1 0;
#X connect 2 0 8 0;
#X connect 2 0 20 0;
#X connect 2 0 21 0;
#X connect 2 0 15 0;
#X connect 3 0 11 0;
#X connect 3 0 16 0;
#X connect 4 0 13 0;
#X connect 5 0 10 0;
#X connect 6 0 2 0;
#X connect 7 0 9 0;
#X connect 8 0 7 0;
#X connect 9 0 10 1;
#X connect 10 0 12 0;
#X connect 12 0 11 0;
#X connect 12 0 16 0;
#X connect 13 0 3 0;
#X connect 13 0 6 0;
#X connect 14 0 11 0;
#X connect 14 0 16 0;
#X connect 15 0 14 0;
#X connect 17 0 13 0;
#X connect 18 0 0 1;
#X connect 19 0 0 2;
#X connect 20 0 7 1;
#X connect 21 0 7 2;
#X restore 709 304 pd mcreator3;
#X msg 709 339 1 1 \$1;
#X msg 709 270 bang;
#X floatatom 367 169 5 0 0 0 - - -, f 5;
#X floatatom 414 169 5 0 0 0 - - -, f 5;
#X floatatom 276 172 5 0 0 0 - - -, f 5;
#X floatatom 323 172 5 0 0 0 - - -, f 5;
#N canvas 470 250 450 300 randomColor 0;
#X obj 194 134 nxRandom;
#X obj 194 200 outlet;
#X obj 163 97 delay 1;
#X msg 163 56 bang;
#X obj 163 24 loadbang;
#X obj 123 24 inlet;
#X msg 216 97 0;
#X msg 244 97 1;
#X connect 0 0 1 0;
#X connect 2 0 0 0;
#X connect 3 0 2 0;
#X connect 3 0 6 0;
#X connect 3 0 7 0;
#X connect 4 0 3 0;
#X connect 5 0 3 0;
#X connect 6 0 0 1;
#X connect 7 0 0 2;
#X restore 432 35 pd randomColor;
#X msg 432 1 bang;
#X obj 128 623 polygon 6;
#X obj 8 200 alpha;
#X floatatom 32 160 2 0 19 0 - - -, f 2;
#X obj 32 104 loadbang;
#X msg 32 133 0;
#X msg 209 317 draw line;
#X msg 131 192 10;
#X obj 11 294 colorRGB;
#N canvas 470 250 450 300 randomColor 0;
#X obj 194 134 nxRandom;
#X obj 194 200 outlet;
#X obj 163 97 delay 1;
#X msg 163 56 bang;
#X obj 163 24 loadbang;
#X obj 123 24 inlet;
#X msg 216 97 0;
#X msg 244 97 1;
#X connect 0 0 1 0;
#X connect 2 0 0 0;
#X connect 3 0 2 0;
#X connect 3 0 6 0;
#X connect 3 0 7 0;
#X connect 4 0 3 0;
#X connect 5 0 3 0;
#X connect 6 0 0 1;
#X connect 7 0 0 2;
#X restore 526 35 pd randomColor;
#X msg 526 1 bang;
#N canvas 470 250 450 300 randomColor 0;
#X obj 194 134 nxRandom;
#X obj 194 200 outlet;
#X obj 163 97 delay 1;
#X msg 163 56 bang;
#X obj 163 24 loadbang;
#X obj 123 24 inlet;
#X msg 216 97 0;
#X msg 244 97 1;
#X connect 0 0 1 0;
#X connect 2 0 0 0;
#X connect 3 0 2 0;
#X connect 3 0 6 0;
#X connect 3 0 7 0;
#X connect 4 0 3 0;
#X connect 5 0 3 0;
#X connect 6 0 0 1;
#X connect 7 0 0 2;
#X restore 619 35 pd randomColor;
#X msg 619 1 bang;
#X msg 712 1 bang;
#N canvas 470 250 450 300 randomAlpha 0;
#X obj 194 134 nxRandom;
#X obj 194 200 outlet;
#X obj 163 97 delay 1;
#X msg 163 56 bang;
#X obj 163 24 loadbang;
#X obj 123 24 inlet;
#X msg 216 97 0.5;
#X msg 244 97 1;
#X connect 0 0 1 0;
#X connect 2 0 0 0;
#X connect 3 0 2 0;
#X connect 3 0 6 0;
#X connect 3 0 7 0;
#X connect 4 0 3 0;
#X connect 5 0 3 0;
#X connect 6 0 0 1;
#X connect 7 0 0 2;
#X restore 712 35 pd randomAlpha;
#X obj 610 514 rotate;
#X floatatom 697 593 5 0 0 0 - - -, f 5;
#X obj 744 520 nxRandom;
#X msg 734 428 bang;
#X obj 734 404 loadbang;
#X obj 711 490 delay 1;
#X floatatom 744 541 5 0 0 0 - - -, f 5;
#X obj 669 651 counter 0 360;
#X obj 669 618 metro;
#X obj 670 542 delay 2;
#X msg 765 476 5;
#X msg 804 475 30;
#N canvas 461 187 450 514 selector 0;
#X msg 47 420 0 0 1;
#X msg 109 421 0 1 0;
#X msg 165 422 1 0 0;
#X msg 230 422 1 1 0;
#X msg 283 422 1 0 1;
#X msg 337 422 0 1 1;
#X obj 47 515 outlet;
#X obj 47 348 select 0 1 2 3 4 5;
#X floatatom 47 257 5 0 0 0 - - -, f 5;
#X obj 47 214 nxRandom;
#X msg 69 183 0;
#X msg 44 114 bang;
#X obj 15 183 delay 1;
#X obj 47 290 int;
#X floatatom 47 319 5 0 0 0 - - -, f 5;
#X msg 98 183 6;
#X obj 44 83 loadbang;
#X connect 0 0 6 0;
#X connect 1 0 6 0;
#X connect 2 0 6 0;
#X connect 3 0 6 0;
#X connect 4 0 6 0;
#X connect 5 0 6 0;
#X connect 7 0 0 0;
#X connect 7 1 1 0;
#X connect 7 2 2 0;
#X connect 7 3 3 0;
#X connect 7 4 4 0;
#X connect 7 5 5 0;
#X connect 8 0 13 0;
#X connect 9 0 8 0;
#X connect 10 0 9 1;
#X connect 11 0 10 0;
#X connect 11 0 15 0;
#X connect 11 0 12 0;
#X connect 12 0 9 0;
#X connect 13 0 14 0;
#X connect 14 0 7 0;
#X connect 15 0 9 2;
#X connect 16 0 11 0;
#X restore 614 458 pd selector;
#X obj 276 145 / 100;
#X obj 323 144 / 100;
#X obj 367 142 / 100;
#X obj 414 141 / 100;
#X obj 456 140 / 100;
#X obj 503 139 / 100;
#X connect 0 0 2 0;
#X connect 1 0 69 0;
#X connect 1 0 71 0;
#X connect 1 0 73 0;
#X connect 2 1 6 0;
#X connect 2 2 3 0;
#X connect 2 3 1 0;
#X connect 3 0 4 0;
#X connect 4 0 68 0;
#X connect 4 0 70 0;
#X connect 4 0 72 0;
#X connect 5 0 42 0;
#X connect 6 0 8 0;
#X connect 7 0 41 0;
#X connect 8 0 9 0;
#X connect 9 0 10 0;
#X connect 10 0 11 0;
#X connect 11 0 12 0;
#X connect 12 0 47 0;
#X connect 12 1 13 0;
#X connect 13 0 7 0;
#X connect 14 0 33 0;
#X connect 15 0 30 0;
#X connect 16 0 46 0;
#X connect 17 0 18 0;
#X connect 18 0 41 4;
#X connect 19 0 17 0;
#X connect 20 0 21 0;
#X connect 21 0 41 3;
#X connect 22 0 20 0;
#X connect 23 0 24 0;
#X connect 24 0 41 2;
#X connect 25 0 23 0;
#X connect 26 0 27 0;
#X connect 27 0 41 1;
#X connect 28 0 26 0;
#X connect 29 0 30 0;
#X connect 30 0 41 6;
#X connect 31 0 29 0;
#X connect 32 0 33 0;
#X connect 33 0 41 5;
#X connect 34 0 32 0;
#X connect 35 0 21 0;
#X connect 36 0 18 0;
#X connect 37 0 27 0;
#X connect 38 0 24 0;
#X connect 39 0 48 1;
#X connect 40 0 39 0;
#X connect 42 0 48 0;
#X connect 43 0 42 1;
#X connect 44 0 45 0;
#X connect 45 0 43 0;
#X connect 46 0 41 0;
#X connect 47 0 7 0;
#X connect 48 0 55 0;
#X connect 49 0 48 2;
#X connect 50 0 49 0;
#X connect 51 0 48 3;
#X connect 52 0 51 0;
#X connect 53 0 54 0;
#X connect 54 0 48 4;
#X connect 55 0 41 0;
#X connect 56 0 63 1;
#X connect 57 0 61 0;
#X connect 58 0 65 0;
#X connect 58 0 66 0;
#X connect 58 0 60 0;
#X connect 58 0 64 0;
#X connect 59 0 58 0;
#X connect 60 0 57 0;
#X connect 61 0 56 0;
#X connect 62 0 55 1;
#X connect 63 0 62 0;
#X connect 64 0 63 0;
#X connect 65 0 57 1;
#X connect 66 0 57 2;
#X connect 67 0 55 2;
#X connect 68 0 37 0;
#X connect 69 0 38 0;
#X connect 70 0 35 0;
#X connect 71 0 36 0;
#X connect 72 0 14 0;
#X connect 73 0 15 0;
