#N canvas 784 489 316 321 10;
#X floatatom 156 8 5 0 0 0 - - -, f 5;
#X obj 55 -63 fiddle~ 1924 1 20 3;
#X obj 110 -34 unpack;
#X floatatom 110 8 5 0 0 0 - - -, f 5;
#X obj 54 -36 gemhead;
#N canvas 737 348 664 445 sph1 0;
#X msg 282 416 draw line;
#X obj 280 289 colorRGB;
#X obj 280 251 alpha;
#X obj 613 182 vsl 15 128 0 1 0 0 empty empty empty 0 -9 0 10 -262144
-1 -1 8128 1;
#X floatatom 539 357 5 0 0 0 - - -, f 5;
#X obj 648 181 vsl 15 128 0 1 0 0 empty empty empty 0 -9 0 10 -262144
-1 -1 5588 1;
#X floatatom 574 356 5 0 0 0 - - -, f 5;
#X obj 684 180 vsl 15 128 0 1 0 0 empty empty empty 0 -9 0 10 -262144
-1 -1 4206 1;
#X floatatom 610 355 5 0 0 0 - - -, f 5;
#X obj 719 179 vsl 15 128 0 1 0 0 empty empty empty 0 -9 0 10 -262144
-1 -1 10053 1;
#X floatatom 645 354 5 0 0 0 - - -, f 5;
#X obj 432 465 sphere;
#X obj 323 128 autoscale;
#X obj 354 172 * 5;
#X obj 282 382 loadbang;
#X obj 356 382 rotateXYZ;
#X floatatom 443 244 5 0 0 0 - - -, f 5;
#X floatatom 479 245 5 0 0 0 - - -, f 5;
#X floatatom 514 245 5 0 0 0 - - -, f 5;
#X obj 265 166 inlet;
#X obj 322 85 inlet;
#X obj 390 85 inlet;
#N canvas 521 492 775 300 rotate 0;
#X obj 101 206 counter 0 360;
#X obj 101 175 metro;
#X msg 101 145 bang;
#X obj 222 102 nxRandom;
#X msg 275 64 50;
#X msg 307 64 200;
#X msg 221 30 bang;
#X obj 221 65 delay 1;
#X obj 221 4 loadbang;
#X floatatom 222 131 5 0 0 0 - - -, f 5;
#X obj 100 116 delay 2;
#X obj 278 211 counter 0 360;
#X obj 278 180 metro;
#X msg 278 150 bang;
#X obj 399 107 nxRandom;
#X msg 452 69 50;
#X msg 484 69 200;
#X msg 398 35 bang;
#X obj 398 70 delay 1;
#X floatatom 399 136 5 0 0 0 - - -, f 5;
#X obj 277 121 delay 2;
#X obj 466 212 counter 0 360;
#X obj 466 181 metro;
#X msg 466 151 bang;
#X obj 587 108 nxRandom;
#X msg 640 70 50;
#X msg 672 70 200;
#X msg 586 36 bang;
#X obj 586 71 delay 1;
#X floatatom 587 137 5 0 0 0 - - -, f 5;
#X obj 465 122 delay 2;
#X obj 101 252 outlet;
#X obj 277 246 outlet;
#X obj 466 250 outlet;
#X connect 0 0 31 0;
#X connect 1 0 0 0;
#X connect 2 0 1 0;
#X connect 3 0 9 0;
#X connect 4 0 3 1;
#X connect 5 0 3 2;
#X connect 6 0 7 0;
#X connect 6 0 4 0;
#X connect 6 0 5 0;
#X connect 6 0 10 0;
#X connect 7 0 3 0;
#X connect 8 0 6 0;
#X connect 8 0 17 0;
#X connect 8 0 27 0;
#X connect 9 0 1 1;
#X connect 10 0 2 0;
#X connect 11 0 32 0;
#X connect 12 0 11 0;
#X connect 13 0 12 0;
#X connect 14 0 19 0;
#X connect 15 0 14 1;
#X connect 16 0 14 2;
#X connect 17 0 18 0;
#X connect 17 0 15 0;
#X connect 17 0 16 0;
#X connect 17 0 20 0;
#X connect 18 0 14 0;
#X connect 19 0 12 1;
#X connect 20 0 13 0;
#X connect 21 0 33 0;
#X connect 22 0 21 0;
#X connect 23 0 22 0;
#X connect 24 0 29 0;
#X connect 25 0 24 1;
#X connect 26 0 24 2;
#X connect 27 0 28 0;
#X connect 27 0 25 0;
#X connect 27 0 26 0;
#X connect 27 0 30 0;
#X connect 28 0 24 0;
#X connect 29 0 22 1;
#X connect 30 0 23 0;
#X restore 509 156 pd rotate;
#X obj 390 127 autoscale 0 15;
#X floatatom 477 98 5 0 0 0 - - -, f 5;
#N canvas 139 492 304 300 ranline 0;
#X obj 71 120 nxRandom;
#X msg 70 48 bang;
#X obj 70 83 delay 1;
#X floatatom 71 149 5 0 0 0 - - -, f 5;
#X obj 69 13 loadbang;
#X obj 70 187 outlet;
#X msg 124 82 200;
#X msg 156 82 300;
#X connect 0 0 3 0;
#X connect 1 0 2 0;
#X connect 1 0 6 0;
#X connect 1 0 7 0;
#X connect 2 0 0 0;
#X connect 3 0 5 0;
#X connect 4 0 1 0;
#X connect 6 0 0 1;
#X connect 7 0 0 2;
#X restore 477 72 pd ranline;
#N canvas 521 477 580 300 rancolor 0;
#X obj 53 96 nxRandom;
#X msg 52 24 bang;
#X obj 52 59 delay 1;
#X floatatom 53 125 5 0 0 0 - - -, f 5;
#X obj 51 -11 loadbang;
#X obj 52 163 outlet;
#X msg 106 58 0;
#X msg 138 58 1;
#X obj 174 94 nxRandom;
#X msg 173 22 bang;
#X obj 173 57 delay 1;
#X floatatom 174 123 5 0 0 0 - - -, f 5;
#X obj 172 -13 loadbang;
#X obj 173 161 outlet;
#X msg 227 56 0;
#X msg 259 56 1;
#X obj 295 93 nxRandom;
#X msg 294 21 bang;
#X obj 294 56 delay 1;
#X floatatom 295 122 5 0 0 0 - - -, f 5;
#X obj 293 -14 loadbang;
#X obj 294 160 outlet;
#X msg 348 55 0;
#X msg 380 55 1;
#X obj 412 91 nxRandom;
#X msg 411 19 bang;
#X obj 411 54 delay 1;
#X floatatom 412 120 5 0 0 0 - - -, f 5;
#X obj 410 -16 loadbang;
#X obj 411 158 outlet;
#X msg 497 53 1;
#X msg 465 53 0.2;
#X connect 0 0 3 0;
#X connect 1 0 2 0;
#X connect 1 0 6 0;
#X connect 1 0 7 0;
#X connect 2 0 0 0;
#X connect 3 0 5 0;
#X connect 4 0 1 0;
#X connect 6 0 0 1;
#X connect 7 0 0 2;
#X connect 8 0 11 0;
#X connect 9 0 10 0;
#X connect 9 0 14 0;
#X connect 9 0 15 0;
#X connect 10 0 8 0;
#X connect 11 0 13 0;
#X connect 12 0 9 0;
#X connect 14 0 8 1;
#X connect 15 0 8 2;
#X connect 16 0 19 0;
#X connect 17 0 18 0;
#X connect 17 0 22 0;
#X connect 17 0 23 0;
#X connect 18 0 16 0;
#X connect 19 0 21 0;
#X connect 20 0 17 0;
#X connect 22 0 16 1;
#X connect 23 0 16 2;
#X connect 24 0 27 0;
#X connect 25 0 26 0;
#X connect 25 0 31 0;
#X connect 25 0 30 0;
#X connect 26 0 24 0;
#X connect 27 0 29 0;
#X connect 28 0 25 0;
#X connect 30 0 24 2;
#X connect 31 0 24 1;
#X restore 611 119 pd rancolor;
#X connect 0 0 11 0;
#X connect 1 0 15 0;
#X connect 2 0 1 0;
#X connect 3 0 4 0;
#X connect 4 0 1 1;
#X connect 5 0 6 0;
#X connect 6 0 1 2;
#X connect 7 0 8 0;
#X connect 8 0 1 3;
#X connect 9 0 10 0;
#X connect 10 0 1 4;
#X connect 12 0 13 0;
#X connect 13 0 11 1;
#X connect 14 0 0 0;
#X connect 15 0 11 0;
#X connect 16 0 15 1;
#X connect 17 0 15 2;
#X connect 18 0 15 3;
#X connect 19 0 2 0;
#X connect 20 0 12 0;
#X connect 21 0 23 0;
#X connect 22 0 16 0;
#X connect 22 1 17 0;
#X connect 22 2 18 0;
#X connect 23 0 11 2;
#X connect 24 0 23 2;
#X connect 25 0 24 0;
#X connect 26 0 3 0;
#X connect 26 1 5 0;
#X connect 26 2 7 0;
#X connect 26 3 9 0;
#X restore 54 113 pd sph1;
#N canvas 765 378 664 445 sph2 0;
#X msg 282 416 draw line;
#X obj 280 289 colorRGB;
#X obj 280 251 alpha;
#X obj 613 182 vsl 15 128 0 1 0 0 empty empty empty 0 -9 0 10 -262144
-1 -1 7628 1;
#X floatatom 539 357 5 0 0 0 - - -, f 5;
#X obj 648 181 vsl 15 128 0 1 0 0 empty empty empty 0 -9 0 10 -262144
-1 -1 9135 1;
#X floatatom 574 356 5 0 0 0 - - -, f 5;
#X obj 684 180 vsl 15 128 0 1 0 0 empty empty empty 0 -9 0 10 -262144
-1 -1 6662 1;
#X floatatom 610 355 5 0 0 0 - - -, f 5;
#X obj 719 179 vsl 15 128 0 1 0 0 empty empty empty 0 -9 0 10 -262144
-1 -1 10437 1;
#X floatatom 645 354 5 0 0 0 - - -, f 5;
#X obj 432 465 sphere;
#X obj 323 128 autoscale;
#X obj 354 172 * 5;
#X obj 282 382 loadbang;
#X obj 356 382 rotateXYZ;
#X floatatom 443 244 5 0 0 0 - - -, f 5;
#X floatatom 479 245 5 0 0 0 - - -, f 5;
#X floatatom 514 245 5 0 0 0 - - -, f 5;
#X obj 265 166 inlet;
#X obj 322 85 inlet;
#X obj 390 85 inlet;
#N canvas 521 492 775 300 rotate 0;
#X obj 101 206 counter 0 360;
#X obj 101 175 metro;
#X msg 101 145 bang;
#X obj 222 102 nxRandom;
#X msg 275 64 50;
#X msg 307 64 200;
#X msg 221 30 bang;
#X obj 221 65 delay 1;
#X obj 221 4 loadbang;
#X floatatom 222 131 5 0 0 0 - - -, f 5;
#X obj 100 116 delay 2;
#X obj 278 211 counter 0 360;
#X obj 278 180 metro;
#X msg 278 150 bang;
#X obj 399 107 nxRandom;
#X msg 452 69 50;
#X msg 484 69 200;
#X msg 398 35 bang;
#X obj 398 70 delay 1;
#X floatatom 399 136 5 0 0 0 - - -, f 5;
#X obj 277 121 delay 2;
#X obj 466 212 counter 0 360;
#X obj 466 181 metro;
#X msg 466 151 bang;
#X obj 587 108 nxRandom;
#X msg 640 70 50;
#X msg 672 70 200;
#X msg 586 36 bang;
#X obj 586 71 delay 1;
#X floatatom 587 137 5 0 0 0 - - -, f 5;
#X obj 465 122 delay 2;
#X obj 101 252 outlet;
#X obj 277 246 outlet;
#X obj 466 250 outlet;
#X connect 0 0 31 0;
#X connect 1 0 0 0;
#X connect 2 0 1 0;
#X connect 3 0 9 0;
#X connect 4 0 3 1;
#X connect 5 0 3 2;
#X connect 6 0 7 0;
#X connect 6 0 4 0;
#X connect 6 0 5 0;
#X connect 6 0 10 0;
#X connect 7 0 3 0;
#X connect 8 0 6 0;
#X connect 8 0 17 0;
#X connect 8 0 27 0;
#X connect 9 0 1 1;
#X connect 10 0 2 0;
#X connect 11 0 32 0;
#X connect 12 0 11 0;
#X connect 13 0 12 0;
#X connect 14 0 19 0;
#X connect 15 0 14 1;
#X connect 16 0 14 2;
#X connect 17 0 18 0;
#X connect 17 0 15 0;
#X connect 17 0 16 0;
#X connect 17 0 20 0;
#X connect 18 0 14 0;
#X connect 19 0 12 1;
#X connect 20 0 13 0;
#X connect 21 0 33 0;
#X connect 22 0 21 0;
#X connect 23 0 22 0;
#X connect 24 0 29 0;
#X connect 25 0 24 1;
#X connect 26 0 24 2;
#X connect 27 0 28 0;
#X connect 27 0 25 0;
#X connect 27 0 26 0;
#X connect 27 0 30 0;
#X connect 28 0 24 0;
#X connect 29 0 22 1;
#X connect 30 0 23 0;
#X restore 509 156 pd rotate;
#X obj 390 127 autoscale 0 15;
#X floatatom 477 98 5 0 0 0 - - -, f 5;
#N canvas 139 492 304 300 ranline 0;
#X obj 71 120 nxRandom;
#X msg 70 48 bang;
#X obj 70 83 delay 1;
#X floatatom 71 149 5 0 0 0 - - -, f 5;
#X obj 69 13 loadbang;
#X msg 124 82 5;
#X obj 70 187 outlet;
#X msg 156 82 20;
#X connect 0 0 3 0;
#X connect 1 0 2 0;
#X connect 1 0 5 0;
#X connect 1 0 7 0;
#X connect 2 0 0 0;
#X connect 3 0 6 0;
#X connect 4 0 1 0;
#X connect 5 0 0 1;
#X connect 7 0 0 2;
#X restore 477 72 pd ranline;
#N canvas 521 477 580 300 rancolor 0;
#X obj 53 96 nxRandom;
#X msg 52 24 bang;
#X obj 52 59 delay 1;
#X floatatom 53 125 5 0 0 0 - - -, f 5;
#X obj 51 -11 loadbang;
#X obj 52 163 outlet;
#X msg 106 58 0;
#X msg 138 58 1;
#X obj 174 94 nxRandom;
#X msg 173 22 bang;
#X obj 173 57 delay 1;
#X floatatom 174 123 5 0 0 0 - - -, f 5;
#X obj 172 -13 loadbang;
#X obj 173 161 outlet;
#X msg 227 56 0;
#X msg 259 56 1;
#X obj 295 93 nxRandom;
#X msg 294 21 bang;
#X obj 294 56 delay 1;
#X floatatom 295 122 5 0 0 0 - - -, f 5;
#X obj 293 -14 loadbang;
#X obj 294 160 outlet;
#X msg 348 55 0;
#X msg 380 55 1;
#X obj 412 91 nxRandom;
#X msg 411 19 bang;
#X obj 411 54 delay 1;
#X floatatom 412 120 5 0 0 0 - - -, f 5;
#X obj 410 -16 loadbang;
#X obj 411 158 outlet;
#X msg 497 53 1;
#X msg 465 53 0.2;
#X connect 0 0 3 0;
#X connect 1 0 2 0;
#X connect 1 0 6 0;
#X connect 1 0 7 0;
#X connect 2 0 0 0;
#X connect 3 0 5 0;
#X connect 4 0 1 0;
#X connect 6 0 0 1;
#X connect 7 0 0 2;
#X connect 8 0 11 0;
#X connect 9 0 10 0;
#X connect 9 0 14 0;
#X connect 9 0 15 0;
#X connect 10 0 8 0;
#X connect 11 0 13 0;
#X connect 12 0 9 0;
#X connect 14 0 8 1;
#X connect 15 0 8 2;
#X connect 16 0 19 0;
#X connect 17 0 18 0;
#X connect 17 0 22 0;
#X connect 17 0 23 0;
#X connect 18 0 16 0;
#X connect 19 0 21 0;
#X connect 20 0 17 0;
#X connect 22 0 16 1;
#X connect 23 0 16 2;
#X connect 24 0 27 0;
#X connect 25 0 26 0;
#X connect 25 0 31 0;
#X connect 25 0 30 0;
#X connect 26 0 24 0;
#X connect 27 0 29 0;
#X connect 28 0 25 0;
#X connect 30 0 24 2;
#X connect 31 0 24 1;
#X restore 611 119 pd rancolor;
#X connect 0 0 11 0;
#X connect 1 0 15 0;
#X connect 2 0 1 0;
#X connect 3 0 4 0;
#X connect 4 0 1 1;
#X connect 5 0 6 0;
#X connect 6 0 1 2;
#X connect 7 0 8 0;
#X connect 8 0 1 3;
#X connect 9 0 10 0;
#X connect 10 0 1 4;
#X connect 12 0 13 0;
#X connect 13 0 11 1;
#X connect 14 0 0 0;
#X connect 15 0 11 0;
#X connect 16 0 15 1;
#X connect 17 0 15 2;
#X connect 18 0 15 3;
#X connect 19 0 2 0;
#X connect 20 0 12 0;
#X connect 21 0 23 0;
#X connect 22 0 16 0;
#X connect 22 1 17 0;
#X connect 22 2 18 0;
#X connect 23 0 11 2;
#X connect 24 0 23 2;
#X connect 25 0 24 0;
#X connect 26 0 3 0;
#X connect 26 1 5 0;
#X connect 26 2 7 0;
#X connect 26 3 9 0;
#X restore 106 112 pd sph2;
#N canvas 765 378 664 445 sph3 0;
#X msg 282 416 draw line;
#X obj 280 289 colorRGB;
#X obj 280 251 alpha;
#X obj 613 182 vsl 15 128 0 1 0 0 empty empty empty 0 -9 0 10 -262144
-1 -1 4304 1;
#X floatatom 539 357 5 0 0 0 - - -, f 5;
#X obj 648 181 vsl 15 128 0 1 0 0 empty empty empty 0 -9 0 10 -262144
-1 -1 5059 1;
#X floatatom 574 356 5 0 0 0 - - -, f 5;
#X obj 684 180 vsl 15 128 0 1 0 0 empty empty empty 0 -9 0 10 -262144
-1 -1 3518 1;
#X floatatom 610 355 5 0 0 0 - - -, f 5;
#X obj 719 179 vsl 15 128 0 1 0 0 empty empty empty 0 -9 0 10 -262144
-1 -1 8905 1;
#X floatatom 645 354 5 0 0 0 - - -, f 5;
#X obj 432 465 sphere;
#X obj 323 128 autoscale;
#X obj 354 172 * 5;
#X obj 282 382 loadbang;
#X obj 356 382 rotateXYZ;
#X floatatom 443 244 5 0 0 0 - - -, f 5;
#X floatatom 479 245 5 0 0 0 - - -, f 5;
#X floatatom 514 245 5 0 0 0 - - -, f 5;
#X obj 265 166 inlet;
#X obj 322 85 inlet;
#X obj 390 85 inlet;
#N canvas 521 492 775 300 rotate 0;
#X obj 101 206 counter 0 360;
#X obj 101 175 metro;
#X msg 101 145 bang;
#X obj 222 102 nxRandom;
#X msg 275 64 50;
#X msg 307 64 200;
#X msg 221 30 bang;
#X obj 221 65 delay 1;
#X obj 221 4 loadbang;
#X floatatom 222 131 5 0 0 0 - - -, f 5;
#X obj 100 116 delay 2;
#X obj 278 211 counter 0 360;
#X obj 278 180 metro;
#X msg 278 150 bang;
#X obj 399 107 nxRandom;
#X msg 452 69 50;
#X msg 484 69 200;
#X msg 398 35 bang;
#X obj 398 70 delay 1;
#X floatatom 399 136 5 0 0 0 - - -, f 5;
#X obj 277 121 delay 2;
#X obj 466 212 counter 0 360;
#X obj 466 181 metro;
#X msg 466 151 bang;
#X obj 587 108 nxRandom;
#X msg 640 70 50;
#X msg 672 70 200;
#X msg 586 36 bang;
#X obj 586 71 delay 1;
#X floatatom 587 137 5 0 0 0 - - -, f 5;
#X obj 465 122 delay 2;
#X obj 101 252 outlet;
#X obj 277 246 outlet;
#X obj 466 250 outlet;
#X connect 0 0 31 0;
#X connect 1 0 0 0;
#X connect 2 0 1 0;
#X connect 3 0 9 0;
#X connect 4 0 3 1;
#X connect 5 0 3 2;
#X connect 6 0 7 0;
#X connect 6 0 4 0;
#X connect 6 0 5 0;
#X connect 6 0 10 0;
#X connect 7 0 3 0;
#X connect 8 0 6 0;
#X connect 8 0 17 0;
#X connect 8 0 27 0;
#X connect 9 0 1 1;
#X connect 10 0 2 0;
#X connect 11 0 32 0;
#X connect 12 0 11 0;
#X connect 13 0 12 0;
#X connect 14 0 19 0;
#X connect 15 0 14 1;
#X connect 16 0 14 2;
#X connect 17 0 18 0;
#X connect 17 0 15 0;
#X connect 17 0 16 0;
#X connect 17 0 20 0;
#X connect 18 0 14 0;
#X connect 19 0 12 1;
#X connect 20 0 13 0;
#X connect 21 0 33 0;
#X connect 22 0 21 0;
#X connect 23 0 22 0;
#X connect 24 0 29 0;
#X connect 25 0 24 1;
#X connect 26 0 24 2;
#X connect 27 0 28 0;
#X connect 27 0 25 0;
#X connect 27 0 26 0;
#X connect 27 0 30 0;
#X connect 28 0 24 0;
#X connect 29 0 22 1;
#X connect 30 0 23 0;
#X restore 509 156 pd rotate;
#X obj 390 127 autoscale 0 15;
#X floatatom 477 98 5 0 0 0 - - -, f 5;
#N canvas 139 492 304 300 ranline 0;
#X obj 71 120 nxRandom;
#X msg 70 48 bang;
#X obj 70 83 delay 1;
#X floatatom 71 149 5 0 0 0 - - -, f 5;
#X obj 69 13 loadbang;
#X msg 124 82 5;
#X obj 70 187 outlet;
#X msg 156 82 20;
#X connect 0 0 3 0;
#X connect 1 0 2 0;
#X connect 1 0 5 0;
#X connect 1 0 7 0;
#X connect 2 0 0 0;
#X connect 3 0 6 0;
#X connect 4 0 1 0;
#X connect 5 0 0 1;
#X connect 7 0 0 2;
#X restore 477 72 pd ranline;
#N canvas 521 477 580 300 rancolor 0;
#X obj 53 96 nxRandom;
#X msg 52 24 bang;
#X obj 52 59 delay 1;
#X floatatom 53 125 5 0 0 0 - - -, f 5;
#X obj 51 -11 loadbang;
#X obj 52 163 outlet;
#X msg 106 58 0;
#X msg 138 58 1;
#X obj 174 94 nxRandom;
#X msg 173 22 bang;
#X obj 173 57 delay 1;
#X floatatom 174 123 5 0 0 0 - - -, f 5;
#X obj 172 -13 loadbang;
#X obj 173 161 outlet;
#X msg 227 56 0;
#X msg 259 56 1;
#X obj 295 93 nxRandom;
#X msg 294 21 bang;
#X obj 294 56 delay 1;
#X floatatom 295 122 5 0 0 0 - - -, f 5;
#X obj 293 -14 loadbang;
#X obj 294 160 outlet;
#X msg 348 55 0;
#X msg 380 55 1;
#X obj 412 91 nxRandom;
#X msg 411 19 bang;
#X obj 411 54 delay 1;
#X floatatom 412 120 5 0 0 0 - - -, f 5;
#X obj 410 -16 loadbang;
#X obj 411 158 outlet;
#X msg 497 53 1;
#X msg 465 53 0.2;
#X connect 0 0 3 0;
#X connect 1 0 2 0;
#X connect 1 0 6 0;
#X connect 1 0 7 0;
#X connect 2 0 0 0;
#X connect 3 0 5 0;
#X connect 4 0 1 0;
#X connect 6 0 0 1;
#X connect 7 0 0 2;
#X connect 8 0 11 0;
#X connect 9 0 10 0;
#X connect 9 0 14 0;
#X connect 9 0 15 0;
#X connect 10 0 8 0;
#X connect 11 0 13 0;
#X connect 12 0 9 0;
#X connect 14 0 8 1;
#X connect 15 0 8 2;
#X connect 16 0 19 0;
#X connect 17 0 18 0;
#X connect 17 0 22 0;
#X connect 17 0 23 0;
#X connect 18 0 16 0;
#X connect 19 0 21 0;
#X connect 20 0 17 0;
#X connect 22 0 16 1;
#X connect 23 0 16 2;
#X connect 24 0 27 0;
#X connect 25 0 26 0;
#X connect 25 0 31 0;
#X connect 25 0 30 0;
#X connect 26 0 24 0;
#X connect 27 0 29 0;
#X connect 28 0 25 0;
#X connect 30 0 24 2;
#X connect 31 0 24 1;
#X restore 611 119 pd rancolor;
#X connect 0 0 11 0;
#X connect 1 0 15 0;
#X connect 2 0 1 0;
#X connect 3 0 4 0;
#X connect 4 0 1 1;
#X connect 5 0 6 0;
#X connect 6 0 1 2;
#X connect 7 0 8 0;
#X connect 8 0 1 3;
#X connect 9 0 10 0;
#X connect 10 0 1 4;
#X connect 12 0 13 0;
#X connect 13 0 11 1;
#X connect 14 0 0 0;
#X connect 15 0 11 0;
#X connect 16 0 15 1;
#X connect 17 0 15 2;
#X connect 18 0 15 3;
#X connect 19 0 2 0;
#X connect 20 0 12 0;
#X connect 21 0 23 0;
#X connect 22 0 16 0;
#X connect 22 1 17 0;
#X connect 22 2 18 0;
#X connect 23 0 11 2;
#X connect 24 0 23 2;
#X connect 25 0 24 0;
#X connect 26 0 3 0;
#X connect 26 1 5 0;
#X connect 26 2 7 0;
#X connect 26 3 9 0;
#X restore 158 112 pd sph3;
#N canvas 765 378 664 445 sph4 0;
#X msg 282 416 draw line;
#X obj 280 289 colorRGB;
#X obj 280 251 alpha;
#X obj 613 182 vsl 15 128 0 1 0 0 empty empty empty 0 -9 0 10 -262144
-1 -1 8729 1;
#X floatatom 539 357 5 0 0 0 - - -, f 5;
#X obj 648 181 vsl 15 128 0 1 0 0 empty empty empty 0 -9 0 10 -262144
-1 -1 3907 1;
#X floatatom 574 356 5 0 0 0 - - -, f 5;
#X obj 684 180 vsl 15 128 0 1 0 0 empty empty empty 0 -9 0 10 -262144
-1 -1 2666 1;
#X floatatom 610 355 5 0 0 0 - - -, f 5;
#X obj 719 179 vsl 15 128 0 1 0 0 empty empty empty 0 -9 0 10 -262144
-1 -1 10985 1;
#X floatatom 645 354 5 0 0 0 - - -, f 5;
#X obj 432 465 sphere;
#X obj 323 128 autoscale;
#X obj 354 172 * 5;
#X obj 282 382 loadbang;
#X obj 356 382 rotateXYZ;
#X floatatom 443 244 5 0 0 0 - - -, f 5;
#X floatatom 479 245 5 0 0 0 - - -, f 5;
#X floatatom 514 245 5 0 0 0 - - -, f 5;
#X obj 265 166 inlet;
#X obj 322 85 inlet;
#X obj 390 85 inlet;
#N canvas 521 492 775 300 rotate 0;
#X obj 101 206 counter 0 360;
#X obj 101 175 metro;
#X msg 101 145 bang;
#X obj 222 102 nxRandom;
#X msg 275 64 50;
#X msg 307 64 200;
#X msg 221 30 bang;
#X obj 221 65 delay 1;
#X obj 221 4 loadbang;
#X floatatom 222 131 5 0 0 0 - - -, f 5;
#X obj 100 116 delay 2;
#X obj 278 211 counter 0 360;
#X obj 278 180 metro;
#X msg 278 150 bang;
#X obj 399 107 nxRandom;
#X msg 452 69 50;
#X msg 484 69 200;
#X msg 398 35 bang;
#X obj 398 70 delay 1;
#X floatatom 399 136 5 0 0 0 - - -, f 5;
#X obj 277 121 delay 2;
#X obj 466 212 counter 0 360;
#X obj 466 181 metro;
#X msg 466 151 bang;
#X obj 587 108 nxRandom;
#X msg 640 70 50;
#X msg 672 70 200;
#X msg 586 36 bang;
#X obj 586 71 delay 1;
#X floatatom 587 137 5 0 0 0 - - -, f 5;
#X obj 465 122 delay 2;
#X obj 101 252 outlet;
#X obj 277 246 outlet;
#X obj 466 250 outlet;
#X connect 0 0 31 0;
#X connect 1 0 0 0;
#X connect 2 0 1 0;
#X connect 3 0 9 0;
#X connect 4 0 3 1;
#X connect 5 0 3 2;
#X connect 6 0 7 0;
#X connect 6 0 4 0;
#X connect 6 0 5 0;
#X connect 6 0 10 0;
#X connect 7 0 3 0;
#X connect 8 0 6 0;
#X connect 8 0 17 0;
#X connect 8 0 27 0;
#X connect 9 0 1 1;
#X connect 10 0 2 0;
#X connect 11 0 32 0;
#X connect 12 0 11 0;
#X connect 13 0 12 0;
#X connect 14 0 19 0;
#X connect 15 0 14 1;
#X connect 16 0 14 2;
#X connect 17 0 18 0;
#X connect 17 0 15 0;
#X connect 17 0 16 0;
#X connect 17 0 20 0;
#X connect 18 0 14 0;
#X connect 19 0 12 1;
#X connect 20 0 13 0;
#X connect 21 0 33 0;
#X connect 22 0 21 0;
#X connect 23 0 22 0;
#X connect 24 0 29 0;
#X connect 25 0 24 1;
#X connect 26 0 24 2;
#X connect 27 0 28 0;
#X connect 27 0 25 0;
#X connect 27 0 26 0;
#X connect 27 0 30 0;
#X connect 28 0 24 0;
#X connect 29 0 22 1;
#X connect 30 0 23 0;
#X restore 509 156 pd rotate;
#X obj 390 127 autoscale 0 15;
#X floatatom 477 98 5 0 0 0 - - -, f 5;
#N canvas 139 492 304 300 ranline 0;
#X obj 71 120 nxRandom;
#X msg 70 48 bang;
#X obj 70 83 delay 1;
#X floatatom 71 149 5 0 0 0 - - -, f 5;
#X obj 69 13 loadbang;
#X msg 124 82 5;
#X obj 70 187 outlet;
#X msg 156 82 20;
#X connect 0 0 3 0;
#X connect 1 0 2 0;
#X connect 1 0 5 0;
#X connect 1 0 7 0;
#X connect 2 0 0 0;
#X connect 3 0 6 0;
#X connect 4 0 1 0;
#X connect 5 0 0 1;
#X connect 7 0 0 2;
#X restore 477 72 pd ranline;
#N canvas 521 477 580 300 rancolor 0;
#X obj 53 96 nxRandom;
#X msg 52 24 bang;
#X obj 52 59 delay 1;
#X floatatom 53 125 5 0 0 0 - - -, f 5;
#X obj 51 -11 loadbang;
#X obj 52 163 outlet;
#X msg 106 58 0;
#X msg 138 58 1;
#X obj 174 94 nxRandom;
#X msg 173 22 bang;
#X obj 173 57 delay 1;
#X floatatom 174 123 5 0 0 0 - - -, f 5;
#X obj 172 -13 loadbang;
#X obj 173 161 outlet;
#X msg 227 56 0;
#X msg 259 56 1;
#X obj 295 93 nxRandom;
#X msg 294 21 bang;
#X obj 294 56 delay 1;
#X floatatom 295 122 5 0 0 0 - - -, f 5;
#X obj 293 -14 loadbang;
#X obj 294 160 outlet;
#X msg 348 55 0;
#X msg 380 55 1;
#X obj 412 91 nxRandom;
#X msg 411 19 bang;
#X obj 411 54 delay 1;
#X floatatom 412 120 5 0 0 0 - - -, f 5;
#X obj 410 -16 loadbang;
#X obj 411 158 outlet;
#X msg 497 53 1;
#X msg 465 53 0.2;
#X connect 0 0 3 0;
#X connect 1 0 2 0;
#X connect 1 0 6 0;
#X connect 1 0 7 0;
#X connect 2 0 0 0;
#X connect 3 0 5 0;
#X connect 4 0 1 0;
#X connect 6 0 0 1;
#X connect 7 0 0 2;
#X connect 8 0 11 0;
#X connect 9 0 10 0;
#X connect 9 0 14 0;
#X connect 9 0 15 0;
#X connect 10 0 8 0;
#X connect 11 0 13 0;
#X connect 12 0 9 0;
#X connect 14 0 8 1;
#X connect 15 0 8 2;
#X connect 16 0 19 0;
#X connect 17 0 18 0;
#X connect 17 0 22 0;
#X connect 17 0 23 0;
#X connect 18 0 16 0;
#X connect 19 0 21 0;
#X connect 20 0 17 0;
#X connect 22 0 16 1;
#X connect 23 0 16 2;
#X connect 24 0 27 0;
#X connect 25 0 26 0;
#X connect 25 0 31 0;
#X connect 25 0 30 0;
#X connect 26 0 24 0;
#X connect 27 0 29 0;
#X connect 28 0 25 0;
#X connect 30 0 24 2;
#X connect 31 0 24 1;
#X restore 611 119 pd rancolor;
#X connect 0 0 11 0;
#X connect 1 0 15 0;
#X connect 2 0 1 0;
#X connect 3 0 4 0;
#X connect 4 0 1 1;
#X connect 5 0 6 0;
#X connect 6 0 1 2;
#X connect 7 0 8 0;
#X connect 8 0 1 3;
#X connect 9 0 10 0;
#X connect 10 0 1 4;
#X connect 12 0 13 0;
#X connect 13 0 11 1;
#X connect 14 0 0 0;
#X connect 15 0 11 0;
#X connect 16 0 15 1;
#X connect 17 0 15 2;
#X connect 18 0 15 3;
#X connect 19 0 2 0;
#X connect 20 0 12 0;
#X connect 21 0 23 0;
#X connect 22 0 16 0;
#X connect 22 1 17 0;
#X connect 22 2 18 0;
#X connect 23 0 11 2;
#X connect 24 0 23 2;
#X connect 25 0 24 0;
#X connect 26 0 3 0;
#X connect 26 1 5 0;
#X connect 26 2 7 0;
#X connect 26 3 9 0;
#X restore 210 111 pd sph4;
#X obj 55 -100 adc~ 3;
#X connect 0 0 5 2;
#X connect 0 0 6 2;
#X connect 0 0 7 2;
#X connect 0 0 8 2;
#X connect 1 2 2 0;
#X connect 1 3 0 0;
#X connect 2 0 3 0;
#X connect 3 0 5 1;
#X connect 3 0 6 1;
#X connect 3 0 7 1;
#X connect 3 0 8 1;
#X connect 4 0 5 0;
#X connect 4 0 6 0;
#X connect 4 0 7 0;
#X connect 4 0 8 0;
#X connect 9 0 1 0;
