#N canvas 461 101 287 441 10;
#X floatatom 164 -26 5 0 0 0 - - -, f 5;
#X obj 63 -97 fiddle~ 1924 1 20 3;
#X obj 118 -68 unpack;
#X floatatom 118 -26 5 0 0 0 - - -, f 5;
#X obj 62 -70 gemhead;
#N canvas 526 77 609 683 C1 0;
#X obj 98 615 square 3;
#X obj 52 248 colorRGB;
#X msg 66 176 0, f 5;
#X msg 110 175 0, f 5;
#X msg 155 174 0, f 5;
#X floatatom 337 412 5 0 0 0 - - -, f 5;
#X obj 337 384 / 100;
#X obj 52 142 alpha;
#X obj 110 122 loadbang;
#X obj 384 339 nxRandom;
#X msg 405 295 25;
#X msg 444 294 100;
#X msg 374 247 bang;
#X obj 374 223 loadbang;
#X obj 350 296 delay 1;
#X floatatom 384 360 5 0 0 0 - - -, f 5;
#X obj 101 336 rotate;
#X floatatom 188 415 5 0 0 0 - - -, f 5;
#X obj 235 342 nxRandom;
#X msg 225 250 bang;
#X obj 225 226 loadbang;
#X obj 202 312 delay 1;
#X floatatom 235 363 5 0 0 0 - - -, f 5;
#X obj 423 137 / 200;
#X obj 52 77 inlet;
#X obj 267 77 inlet;
#X obj 422 75 inlet;
#X obj 160 473 counter 0 360;
#X obj 160 440 metro;
#X obj 161 364 delay 2;
#X msg 256 298 5;
#X msg 295 297 30;
#N canvas 461 187 450 514 selector 0;
#X msg 47 420 0 0 1;
#X msg 109 421 0 1 0;
#X msg 165 422 1 0 0;
#X msg 230 422 1 1 0;
#X msg 283 422 1 0 1;
#X msg 337 422 0 1 1;
#X obj 47 515 outlet;
#X obj 47 348 select 0 1 2 3 4 5;
#X floatatom 47 257 5 0 0 0 - - -, f 5;
#X obj 47 214 nxRandom;
#X msg 69 183 0;
#X msg 44 114 bang;
#X obj 15 183 delay 1;
#X obj 47 290 int;
#X floatatom 47 319 5 0 0 0 - - -, f 5;
#X msg 98 183 6;
#X obj 44 83 loadbang;
#X connect 0 0 6 0;
#X connect 1 0 6 0;
#X connect 2 0 6 0;
#X connect 3 0 6 0;
#X connect 4 0 6 0;
#X connect 5 0 6 0;
#X connect 7 0 0 0;
#X connect 7 1 1 0;
#X connect 7 2 2 0;
#X connect 7 3 3 0;
#X connect 7 4 4 0;
#X connect 7 5 5 0;
#X connect 8 0 13 0;
#X connect 9 0 8 0;
#X connect 10 0 9 1;
#X connect 11 0 10 0;
#X connect 11 0 15 0;
#X connect 11 0 12 0;
#X connect 12 0 9 0;
#X connect 13 0 14 0;
#X connect 14 0 7 0;
#X connect 15 0 9 2;
#X connect 16 0 11 0;
#X restore 105 280 pd selector;
#X connect 1 0 16 0;
#X connect 2 0 1 1;
#X connect 3 0 1 2;
#X connect 4 0 1 3;
#X connect 5 0 0 1;
#X connect 6 0 5 0;
#X connect 7 0 1 0;
#X connect 8 0 2 0;
#X connect 8 0 3 0;
#X connect 8 0 4 0;
#X connect 9 0 15 0;
#X connect 10 0 9 1;
#X connect 11 0 9 2;
#X connect 12 0 10 0;
#X connect 12 0 11 0;
#X connect 12 0 14 0;
#X connect 13 0 12 0;
#X connect 14 0 9 0;
#X connect 15 0 6 1;
#X connect 16 0 0 0;
#X connect 17 0 28 1;
#X connect 18 0 22 0;
#X connect 19 0 30 0;
#X connect 19 0 31 0;
#X connect 19 0 21 0;
#X connect 19 0 29 0;
#X connect 20 0 19 0;
#X connect 21 0 18 0;
#X connect 22 0 17 0;
#X connect 23 0 1 4;
#X connect 24 0 7 0;
#X connect 25 0 6 0;
#X connect 26 0 23 0;
#X connect 27 0 16 1;
#X connect 28 0 27 0;
#X connect 29 0 28 0;
#X connect 30 0 18 1;
#X connect 31 0 18 2;
#X connect 32 0 16 2;
#X restore 65 210 pd C1;
#N canvas 526 77 609 683 C2 0;
#X obj 98 615 square 3;
#X obj 52 248 colorRGB;
#X msg 66 176 0, f 5;
#X msg 110 175 0, f 5;
#X msg 155 174 0, f 5;
#X floatatom 337 412 5 0 0 0 - - -, f 5;
#X obj 337 384 / 100;
#X obj 52 142 alpha;
#X obj 110 122 loadbang;
#X obj 384 339 nxRandom;
#X msg 405 295 25;
#X msg 444 294 100;
#X msg 374 247 bang;
#X obj 374 223 loadbang;
#X obj 350 296 delay 1;
#X floatatom 384 360 5 0 0 0 - - -, f 5;
#X obj 101 336 rotate;
#X floatatom 188 415 5 0 0 0 - - -, f 5;
#X obj 235 342 nxRandom;
#X msg 225 250 bang;
#X obj 225 226 loadbang;
#X obj 202 312 delay 1;
#X floatatom 235 363 5 0 0 0 - - -, f 5;
#X obj 423 137 / 200;
#X obj 52 77 inlet;
#X obj 267 77 inlet;
#X obj 422 75 inlet;
#X obj 160 473 counter 0 360;
#X obj 160 440 metro;
#X obj 161 364 delay 2;
#X msg 256 298 5;
#X msg 295 297 30;
#N canvas 461 187 450 514 selector 0;
#X msg 47 420 0 0 1;
#X msg 109 421 0 1 0;
#X msg 165 422 1 0 0;
#X msg 230 422 1 1 0;
#X msg 283 422 1 0 1;
#X msg 337 422 0 1 1;
#X obj 47 515 outlet;
#X obj 47 348 select 0 1 2 3 4 5;
#X floatatom 47 257 5 0 0 0 - - -, f 5;
#X obj 47 214 nxRandom;
#X msg 69 183 0;
#X msg 44 114 bang;
#X obj 15 183 delay 1;
#X obj 47 290 int;
#X floatatom 47 319 5 0 0 0 - - -, f 5;
#X msg 98 183 6;
#X obj 44 83 loadbang;
#X connect 0 0 6 0;
#X connect 1 0 6 0;
#X connect 2 0 6 0;
#X connect 3 0 6 0;
#X connect 4 0 6 0;
#X connect 5 0 6 0;
#X connect 7 0 0 0;
#X connect 7 1 1 0;
#X connect 7 2 2 0;
#X connect 7 3 3 0;
#X connect 7 4 4 0;
#X connect 7 5 5 0;
#X connect 8 0 13 0;
#X connect 9 0 8 0;
#X connect 10 0 9 1;
#X connect 11 0 10 0;
#X connect 11 0 15 0;
#X connect 11 0 12 0;
#X connect 12 0 9 0;
#X connect 13 0 14 0;
#X connect 14 0 7 0;
#X connect 15 0 9 2;
#X connect 16 0 11 0;
#X restore 105 280 pd selector;
#X connect 1 0 16 0;
#X connect 2 0 1 1;
#X connect 3 0 1 2;
#X connect 4 0 1 3;
#X connect 5 0 0 1;
#X connect 6 0 5 0;
#X connect 7 0 1 0;
#X connect 8 0 2 0;
#X connect 8 0 3 0;
#X connect 8 0 4 0;
#X connect 9 0 15 0;
#X connect 10 0 9 1;
#X connect 11 0 9 2;
#X connect 12 0 10 0;
#X connect 12 0 11 0;
#X connect 12 0 14 0;
#X connect 13 0 12 0;
#X connect 14 0 9 0;
#X connect 15 0 6 1;
#X connect 16 0 0 0;
#X connect 17 0 28 1;
#X connect 18 0 22 0;
#X connect 19 0 30 0;
#X connect 19 0 31 0;
#X connect 19 0 21 0;
#X connect 19 0 29 0;
#X connect 20 0 19 0;
#X connect 21 0 18 0;
#X connect 22 0 17 0;
#X connect 23 0 1 4;
#X connect 24 0 7 0;
#X connect 25 0 6 0;
#X connect 26 0 23 0;
#X connect 27 0 16 1;
#X connect 28 0 27 0;
#X connect 29 0 28 0;
#X connect 30 0 18 1;
#X connect 31 0 18 2;
#X connect 32 0 16 2;
#X restore 105 210 pd C2;
#N canvas 526 77 609 683 C3 0;
#X obj 98 615 square 3;
#X obj 52 248 colorRGB;
#X msg 66 176 0, f 5;
#X msg 110 175 0, f 5;
#X msg 155 174 0, f 5;
#X floatatom 337 412 5 0 0 0 - - -, f 5;
#X obj 337 384 / 100;
#X obj 52 142 alpha;
#X obj 110 122 loadbang;
#X obj 384 339 nxRandom;
#X msg 405 295 25;
#X msg 444 294 100;
#X msg 374 247 bang;
#X obj 374 223 loadbang;
#X obj 350 296 delay 1;
#X floatatom 384 360 5 0 0 0 - - -, f 5;
#X obj 101 336 rotate;
#X floatatom 188 415 5 0 0 0 - - -, f 5;
#X obj 235 342 nxRandom;
#X msg 225 250 bang;
#X obj 225 226 loadbang;
#X obj 202 312 delay 1;
#X floatatom 235 363 5 0 0 0 - - -, f 5;
#X obj 423 137 / 200;
#X obj 52 77 inlet;
#X obj 267 77 inlet;
#X obj 422 75 inlet;
#X obj 160 473 counter 0 360;
#X obj 160 440 metro;
#X obj 161 364 delay 2;
#X msg 256 298 5;
#X msg 295 297 30;
#N canvas 461 187 450 514 selector 0;
#X msg 47 420 0 0 1;
#X msg 109 421 0 1 0;
#X msg 165 422 1 0 0;
#X msg 230 422 1 1 0;
#X msg 283 422 1 0 1;
#X msg 337 422 0 1 1;
#X obj 47 515 outlet;
#X obj 47 348 select 0 1 2 3 4 5;
#X floatatom 47 257 5 0 0 0 - - -, f 5;
#X obj 47 214 nxRandom;
#X msg 69 183 0;
#X msg 44 114 bang;
#X obj 15 183 delay 1;
#X obj 47 290 int;
#X floatatom 47 319 5 0 0 0 - - -, f 5;
#X msg 98 183 6;
#X obj 44 83 loadbang;
#X connect 0 0 6 0;
#X connect 1 0 6 0;
#X connect 2 0 6 0;
#X connect 3 0 6 0;
#X connect 4 0 6 0;
#X connect 5 0 6 0;
#X connect 7 0 0 0;
#X connect 7 1 1 0;
#X connect 7 2 2 0;
#X connect 7 3 3 0;
#X connect 7 4 4 0;
#X connect 7 5 5 0;
#X connect 8 0 13 0;
#X connect 9 0 8 0;
#X connect 10 0 9 1;
#X connect 11 0 10 0;
#X connect 11 0 15 0;
#X connect 11 0 12 0;
#X connect 12 0 9 0;
#X connect 13 0 14 0;
#X connect 14 0 7 0;
#X connect 15 0 9 2;
#X connect 16 0 11 0;
#X restore 105 280 pd selector;
#X connect 1 0 16 0;
#X connect 2 0 1 1;
#X connect 3 0 1 2;
#X connect 4 0 1 3;
#X connect 5 0 0 1;
#X connect 6 0 5 0;
#X connect 7 0 1 0;
#X connect 8 0 2 0;
#X connect 8 0 3 0;
#X connect 8 0 4 0;
#X connect 9 0 15 0;
#X connect 10 0 9 1;
#X connect 11 0 9 2;
#X connect 12 0 10 0;
#X connect 12 0 11 0;
#X connect 12 0 14 0;
#X connect 13 0 12 0;
#X connect 14 0 9 0;
#X connect 15 0 6 1;
#X connect 16 0 0 0;
#X connect 17 0 28 1;
#X connect 18 0 22 0;
#X connect 19 0 30 0;
#X connect 19 0 31 0;
#X connect 19 0 21 0;
#X connect 19 0 29 0;
#X connect 20 0 19 0;
#X connect 21 0 18 0;
#X connect 22 0 17 0;
#X connect 23 0 1 4;
#X connect 24 0 7 0;
#X connect 25 0 6 0;
#X connect 26 0 23 0;
#X connect 27 0 16 1;
#X connect 28 0 27 0;
#X connect 29 0 28 0;
#X connect 30 0 18 1;
#X connect 31 0 18 2;
#X connect 32 0 16 2;
#X restore 144 209 pd C3;
#X obj 63 -134 adc~ 3;
#X connect 0 0 5 2;
#X connect 0 0 6 2;
#X connect 0 0 7 2;
#X connect 1 2 2 0;
#X connect 1 3 0 0;
#X connect 2 0 3 0;
#X connect 3 0 5 1;
#X connect 3 0 6 1;
#X connect 3 0 7 1;
#X connect 4 0 5 0;
#X connect 4 0 6 0;
#X connect 4 0 7 0;
#X connect 8 0 1 0;
