#N canvas 964 432 343 386 10;
#X obj 200 147 unpack;
#X floatatom 200 182 0 0 0 0 - - -;
#X obj 200 116 route 1 2 3 4;
#X floatatom 142 115 0 0 0 0 - - -;
#X obj 58 62 fiddle~ 1024 1 20 3;
#X obj 58 112 gemhead;
#N canvas 766 98 651 673 sub1 0;
#X floatatom 143 79 5 0 0 0 - - -, f 5;
#X obj 143 37 autoscale;
#X obj 55 234 alpha;
#X obj 74 211 tgl 15 0 empty empty empty 17 7 0 10 -262144 -1 -1 1
1;
#X obj 75 183 loadbang;
#X obj 55 280 colorRGB;
#X floatatom 234 95 5 0 0 0 - - -, f 5;
#X obj 437 213 nxRandom;
#X msg 437 144 bang;
#X obj 437 179 delay 1;
#X obj 437 114 loadbang;
#X floatatom 437 246 5 0 0 0 - - -, f 5;
#X obj 438 373 nxRandom;
#X msg 493 338 0;
#X msg 438 304 bang;
#X obj 438 339 delay 1;
#X obj 438 274 loadbang;
#X floatatom 438 406 5 0 0 0 - - -, f 5;
#X obj 234 37 autoscale;
#X msg 528 338 1;
#X floatatom 298 98 5 0 0 0 - - -, f 5;
#X obj 297 36 autoscale;
#X obj 298 70 *;
#X obj 522 481 nxRandom;
#X msg 522 412 bang;
#X obj 522 447 delay 1;
#X obj 522 382 loadbang;
#X floatatom 522 514 5 0 0 0 - - -, f 5;
#X obj 55 328 rectangle;
#X obj 176 454 nxRandom;
#X msg 176 385 bang;
#X obj 176 420 delay 1;
#X obj 176 355 loadbang;
#X floatatom 176 487 5 0 0 0 - - -, f 5;
#X obj 156 527 *;
#X obj 302 453 nxRandom;
#X msg 302 384 bang;
#X obj 302 419 delay 1;
#X obj 302 354 loadbang;
#X floatatom 302 486 5 0 0 0 - - -, f 5;
#X obj 282 526 *;
#X obj 56 -50 inlet;
#X obj 107 -49 inlet;
#X obj 153 -49 inlet;
#X msg 231 419 0.5;
#X msg 270 418 10;
#X msg 357 418 0.5;
#X msg 396 417 10;
#X obj 536 80 nxRandom;
#X msg 536 11 bang;
#X obj 536 46 delay 1;
#X obj 536 -19 loadbang;
#X floatatom 536 113 5 0 0 0 - - -, f 5;
#X obj 235 66 *;
#X msg 620 44 50;
#X msg 591 45 1;
#X msg 492 178 1;
#X msg 531 177 50;
#X msg 577 446 0.5;
#X msg 611 445 0.9;
#X connect 0 0 34 0;
#X connect 0 0 40 0;
#X connect 1 0 0 0;
#X connect 2 0 5 0;
#X connect 3 0 2 0;
#X connect 4 0 3 0;
#X connect 5 0 28 0;
#X connect 6 0 5 1;
#X connect 7 0 11 0;
#X connect 8 0 9 0;
#X connect 8 0 56 0;
#X connect 8 0 57 0;
#X connect 9 0 7 0;
#X connect 10 0 8 0;
#X connect 11 0 22 1;
#X connect 12 0 17 0;
#X connect 13 0 12 1;
#X connect 14 0 15 0;
#X connect 14 0 13 0;
#X connect 14 0 19 0;
#X connect 15 0 12 0;
#X connect 16 0 14 0;
#X connect 17 0 5 3;
#X connect 18 0 53 0;
#X connect 19 0 12 2;
#X connect 20 0 5 2;
#X connect 21 0 22 0;
#X connect 22 0 20 0;
#X connect 23 0 27 0;
#X connect 24 0 25 0;
#X connect 24 0 58 0;
#X connect 24 0 59 0;
#X connect 25 0 23 0;
#X connect 26 0 24 0;
#X connect 27 0 5 4;
#X connect 29 0 33 0;
#X connect 30 0 31 0;
#X connect 30 0 44 0;
#X connect 30 0 45 0;
#X connect 31 0 29 0;
#X connect 32 0 30 0;
#X connect 33 0 34 1;
#X connect 34 0 28 1;
#X connect 35 0 39 0;
#X connect 36 0 37 0;
#X connect 36 0 46 0;
#X connect 36 0 47 0;
#X connect 37 0 35 0;
#X connect 38 0 36 0;
#X connect 39 0 40 1;
#X connect 40 0 28 2;
#X connect 41 0 2 0;
#X connect 42 0 1 0;
#X connect 43 0 18 0;
#X connect 43 0 21 0;
#X connect 44 0 29 1;
#X connect 45 0 29 2;
#X connect 46 0 35 1;
#X connect 47 0 35 2;
#X connect 48 0 52 0;
#X connect 49 0 50 0;
#X connect 49 0 55 0;
#X connect 49 0 54 0;
#X connect 50 0 48 0;
#X connect 51 0 49 0;
#X connect 52 0 53 1;
#X connect 53 0 6 0;
#X connect 54 0 48 2;
#X connect 55 0 48 1;
#X connect 56 0 7 1;
#X connect 57 0 7 2;
#X connect 58 0 23 1;
#X connect 59 0 23 2;
#X restore 58 299 pd sub1;
#N canvas 766 98 651 673 sub2 0;
#X floatatom 143 79 5 0 0 0 - - -, f 5;
#X obj 143 37 autoscale;
#X obj 55 234 alpha;
#X obj 74 211 tgl 15 0 empty empty empty 17 7 0 10 -262144 -1 -1 1
1;
#X obj 75 183 loadbang;
#X obj 55 280 colorRGB;
#X floatatom 234 95 5 0 0 0 - - -, f 5;
#X obj 437 213 nxRandom;
#X msg 437 144 bang;
#X obj 437 179 delay 1;
#X obj 437 114 loadbang;
#X floatatom 437 246 5 0 0 0 - - -, f 5;
#X obj 438 373 nxRandom;
#X msg 493 338 0;
#X msg 438 304 bang;
#X obj 438 339 delay 1;
#X obj 438 274 loadbang;
#X floatatom 438 406 5 0 0 0 - - -, f 5;
#X obj 234 37 autoscale;
#X msg 528 338 1;
#X floatatom 298 98 5 0 0 0 - - -, f 5;
#X obj 297 36 autoscale;
#X obj 298 70 *;
#X obj 522 481 nxRandom;
#X msg 522 412 bang;
#X obj 522 447 delay 1;
#X obj 522 382 loadbang;
#X floatatom 522 514 5 0 0 0 - - -, f 5;
#X obj 55 328 rectangle;
#X obj 176 454 nxRandom;
#X msg 176 385 bang;
#X obj 176 420 delay 1;
#X obj 176 355 loadbang;
#X floatatom 176 487 5 0 0 0 - - -, f 5;
#X obj 156 527 *;
#X obj 302 453 nxRandom;
#X msg 302 384 bang;
#X obj 302 419 delay 1;
#X obj 302 354 loadbang;
#X floatatom 302 486 5 0 0 0 - - -, f 5;
#X obj 282 526 *;
#X obj 56 -50 inlet;
#X obj 107 -49 inlet;
#X obj 153 -49 inlet;
#X msg 231 419 0.5;
#X msg 270 418 10;
#X msg 357 418 0.5;
#X msg 396 417 10;
#X obj 536 80 nxRandom;
#X msg 536 11 bang;
#X obj 536 46 delay 1;
#X obj 536 -19 loadbang;
#X floatatom 536 113 5 0 0 0 - - -, f 5;
#X obj 235 66 *;
#X msg 620 44 50;
#X msg 591 45 1;
#X msg 492 178 1;
#X msg 531 177 50;
#X msg 577 446 0.5;
#X msg 611 445 0.9;
#X connect 0 0 34 0;
#X connect 0 0 40 0;
#X connect 1 0 0 0;
#X connect 2 0 5 0;
#X connect 3 0 2 0;
#X connect 4 0 3 0;
#X connect 5 0 28 0;
#X connect 6 0 5 1;
#X connect 7 0 11 0;
#X connect 8 0 9 0;
#X connect 8 0 56 0;
#X connect 8 0 57 0;
#X connect 9 0 7 0;
#X connect 10 0 8 0;
#X connect 11 0 22 1;
#X connect 12 0 17 0;
#X connect 13 0 12 1;
#X connect 14 0 15 0;
#X connect 14 0 13 0;
#X connect 14 0 19 0;
#X connect 15 0 12 0;
#X connect 16 0 14 0;
#X connect 17 0 5 3;
#X connect 18 0 53 0;
#X connect 19 0 12 2;
#X connect 20 0 5 2;
#X connect 21 0 22 0;
#X connect 22 0 20 0;
#X connect 23 0 27 0;
#X connect 24 0 25 0;
#X connect 24 0 58 0;
#X connect 24 0 59 0;
#X connect 25 0 23 0;
#X connect 26 0 24 0;
#X connect 27 0 5 4;
#X connect 29 0 33 0;
#X connect 30 0 31 0;
#X connect 30 0 44 0;
#X connect 30 0 45 0;
#X connect 31 0 29 0;
#X connect 32 0 30 0;
#X connect 33 0 34 1;
#X connect 34 0 28 1;
#X connect 35 0 39 0;
#X connect 36 0 37 0;
#X connect 36 0 46 0;
#X connect 36 0 47 0;
#X connect 37 0 35 0;
#X connect 38 0 36 0;
#X connect 39 0 40 1;
#X connect 40 0 28 2;
#X connect 41 0 2 0;
#X connect 42 0 1 0;
#X connect 43 0 18 0;
#X connect 43 0 21 0;
#X connect 44 0 29 1;
#X connect 45 0 29 2;
#X connect 46 0 35 1;
#X connect 47 0 35 2;
#X connect 48 0 52 0;
#X connect 49 0 50 0;
#X connect 49 0 55 0;
#X connect 49 0 54 0;
#X connect 50 0 48 0;
#X connect 51 0 49 0;
#X connect 52 0 53 1;
#X connect 53 0 6 0;
#X connect 54 0 48 2;
#X connect 55 0 48 1;
#X connect 56 0 7 1;
#X connect 57 0 7 2;
#X connect 58 0 23 1;
#X connect 59 0 23 2;
#X restore 109 299 pd sub2;
#N canvas 766 98 651 673 sub3 0;
#X floatatom 143 79 5 0 0 0 - - -, f 5;
#X obj 143 37 autoscale;
#X obj 55 234 alpha;
#X obj 74 211 tgl 15 0 empty empty empty 17 7 0 10 -262144 -1 -1 1
1;
#X obj 75 183 loadbang;
#X obj 55 280 colorRGB;
#X floatatom 234 95 5 0 0 0 - - -, f 5;
#X obj 437 213 nxRandom;
#X msg 437 144 bang;
#X obj 437 179 delay 1;
#X obj 437 114 loadbang;
#X floatatom 437 246 5 0 0 0 - - -, f 5;
#X obj 438 373 nxRandom;
#X msg 493 338 0;
#X msg 438 304 bang;
#X obj 438 339 delay 1;
#X obj 438 274 loadbang;
#X floatatom 438 406 5 0 0 0 - - -, f 5;
#X obj 234 37 autoscale;
#X msg 528 338 1;
#X floatatom 298 98 5 0 0 0 - - -, f 5;
#X obj 297 36 autoscale;
#X obj 298 70 *;
#X obj 522 481 nxRandom;
#X msg 522 412 bang;
#X obj 522 447 delay 1;
#X obj 522 382 loadbang;
#X floatatom 522 514 5 0 0 0 - - -, f 5;
#X obj 55 328 rectangle;
#X obj 176 454 nxRandom;
#X msg 176 385 bang;
#X obj 176 420 delay 1;
#X obj 176 355 loadbang;
#X floatatom 176 487 5 0 0 0 - - -, f 5;
#X obj 156 527 *;
#X obj 302 453 nxRandom;
#X msg 302 384 bang;
#X obj 302 419 delay 1;
#X obj 302 354 loadbang;
#X floatatom 302 486 5 0 0 0 - - -, f 5;
#X obj 282 526 *;
#X obj 56 -50 inlet;
#X obj 107 -49 inlet;
#X obj 153 -49 inlet;
#X msg 231 419 0.5;
#X msg 270 418 10;
#X msg 357 418 0.5;
#X msg 396 417 10;
#X obj 536 80 nxRandom;
#X msg 536 11 bang;
#X obj 536 46 delay 1;
#X obj 536 -19 loadbang;
#X floatatom 536 113 5 0 0 0 - - -, f 5;
#X obj 235 66 *;
#X msg 620 44 50;
#X msg 591 45 1;
#X msg 492 178 1;
#X msg 531 177 50;
#X msg 577 446 0.5;
#X msg 611 445 0.9;
#X connect 0 0 34 0;
#X connect 0 0 40 0;
#X connect 1 0 0 0;
#X connect 2 0 5 0;
#X connect 3 0 2 0;
#X connect 4 0 3 0;
#X connect 5 0 28 0;
#X connect 6 0 5 1;
#X connect 7 0 11 0;
#X connect 8 0 9 0;
#X connect 8 0 56 0;
#X connect 8 0 57 0;
#X connect 9 0 7 0;
#X connect 10 0 8 0;
#X connect 11 0 22 1;
#X connect 12 0 17 0;
#X connect 13 0 12 1;
#X connect 14 0 15 0;
#X connect 14 0 13 0;
#X connect 14 0 19 0;
#X connect 15 0 12 0;
#X connect 16 0 14 0;
#X connect 17 0 5 3;
#X connect 18 0 53 0;
#X connect 19 0 12 2;
#X connect 20 0 5 2;
#X connect 21 0 22 0;
#X connect 22 0 20 0;
#X connect 23 0 27 0;
#X connect 24 0 25 0;
#X connect 24 0 58 0;
#X connect 24 0 59 0;
#X connect 25 0 23 0;
#X connect 26 0 24 0;
#X connect 27 0 5 4;
#X connect 29 0 33 0;
#X connect 30 0 31 0;
#X connect 30 0 44 0;
#X connect 30 0 45 0;
#X connect 31 0 29 0;
#X connect 32 0 30 0;
#X connect 33 0 34 1;
#X connect 34 0 28 1;
#X connect 35 0 39 0;
#X connect 36 0 37 0;
#X connect 36 0 46 0;
#X connect 36 0 47 0;
#X connect 37 0 35 0;
#X connect 38 0 36 0;
#X connect 39 0 40 1;
#X connect 40 0 28 2;
#X connect 41 0 2 0;
#X connect 42 0 1 0;
#X connect 43 0 18 0;
#X connect 43 0 21 0;
#X connect 44 0 29 1;
#X connect 45 0 29 2;
#X connect 46 0 35 1;
#X connect 47 0 35 2;
#X connect 48 0 52 0;
#X connect 49 0 50 0;
#X connect 49 0 55 0;
#X connect 49 0 54 0;
#X connect 50 0 48 0;
#X connect 51 0 49 0;
#X connect 52 0 53 1;
#X connect 53 0 6 0;
#X connect 54 0 48 2;
#X connect 55 0 48 1;
#X connect 56 0 7 1;
#X connect 57 0 7 2;
#X connect 58 0 23 1;
#X connect 59 0 23 2;
#X restore 160 299 pd sub3;
#N canvas 766 98 651 673 sub4 0;
#X floatatom 143 79 5 0 0 0 - - -, f 5;
#X obj 143 37 autoscale;
#X obj 55 234 alpha;
#X obj 74 211 tgl 15 0 empty empty empty 17 7 0 10 -262144 -1 -1 1
1;
#X obj 75 183 loadbang;
#X obj 55 280 colorRGB;
#X floatatom 234 95 5 0 0 0 - - -, f 5;
#X obj 437 213 nxRandom;
#X msg 437 144 bang;
#X obj 437 179 delay 1;
#X obj 437 114 loadbang;
#X floatatom 437 246 5 0 0 0 - - -, f 5;
#X obj 438 373 nxRandom;
#X msg 493 338 0;
#X msg 438 304 bang;
#X obj 438 339 delay 1;
#X obj 438 274 loadbang;
#X floatatom 438 406 5 0 0 0 - - -, f 5;
#X obj 234 37 autoscale;
#X msg 528 338 1;
#X floatatom 298 98 5 0 0 0 - - -, f 5;
#X obj 297 36 autoscale;
#X obj 298 70 *;
#X obj 522 481 nxRandom;
#X msg 522 412 bang;
#X obj 522 447 delay 1;
#X obj 522 382 loadbang;
#X floatatom 522 514 5 0 0 0 - - -, f 5;
#X obj 55 328 rectangle;
#X obj 176 454 nxRandom;
#X msg 176 385 bang;
#X obj 176 420 delay 1;
#X obj 176 355 loadbang;
#X floatatom 176 487 5 0 0 0 - - -, f 5;
#X obj 156 527 *;
#X obj 302 453 nxRandom;
#X msg 302 384 bang;
#X obj 302 419 delay 1;
#X obj 302 354 loadbang;
#X floatatom 302 486 5 0 0 0 - - -, f 5;
#X obj 282 526 *;
#X obj 56 -50 inlet;
#X obj 107 -49 inlet;
#X obj 153 -49 inlet;
#X msg 231 419 0.5;
#X msg 270 418 10;
#X msg 357 418 0.5;
#X msg 396 417 10;
#X obj 536 80 nxRandom;
#X msg 536 11 bang;
#X obj 536 46 delay 1;
#X obj 536 -19 loadbang;
#X floatatom 536 113 5 0 0 0 - - -, f 5;
#X obj 235 66 *;
#X msg 620 44 50;
#X msg 591 45 1;
#X msg 492 178 1;
#X msg 531 177 50;
#X msg 577 446 0.5;
#X msg 611 445 0.9;
#X connect 0 0 34 0;
#X connect 0 0 40 0;
#X connect 1 0 0 0;
#X connect 2 0 5 0;
#X connect 3 0 2 0;
#X connect 4 0 3 0;
#X connect 5 0 28 0;
#X connect 6 0 5 1;
#X connect 7 0 11 0;
#X connect 8 0 9 0;
#X connect 8 0 56 0;
#X connect 8 0 57 0;
#X connect 9 0 7 0;
#X connect 10 0 8 0;
#X connect 11 0 22 1;
#X connect 12 0 17 0;
#X connect 13 0 12 1;
#X connect 14 0 15 0;
#X connect 14 0 13 0;
#X connect 14 0 19 0;
#X connect 15 0 12 0;
#X connect 16 0 14 0;
#X connect 17 0 5 3;
#X connect 18 0 53 0;
#X connect 19 0 12 2;
#X connect 20 0 5 2;
#X connect 21 0 22 0;
#X connect 22 0 20 0;
#X connect 23 0 27 0;
#X connect 24 0 25 0;
#X connect 24 0 58 0;
#X connect 24 0 59 0;
#X connect 25 0 23 0;
#X connect 26 0 24 0;
#X connect 27 0 5 4;
#X connect 29 0 33 0;
#X connect 30 0 31 0;
#X connect 30 0 44 0;
#X connect 30 0 45 0;
#X connect 31 0 29 0;
#X connect 32 0 30 0;
#X connect 33 0 34 1;
#X connect 34 0 28 1;
#X connect 35 0 39 0;
#X connect 36 0 37 0;
#X connect 36 0 46 0;
#X connect 36 0 47 0;
#X connect 37 0 35 0;
#X connect 38 0 36 0;
#X connect 39 0 40 1;
#X connect 40 0 28 2;
#X connect 41 0 2 0;
#X connect 42 0 1 0;
#X connect 43 0 18 0;
#X connect 43 0 21 0;
#X connect 44 0 29 1;
#X connect 45 0 29 2;
#X connect 46 0 35 1;
#X connect 47 0 35 2;
#X connect 48 0 52 0;
#X connect 49 0 50 0;
#X connect 49 0 55 0;
#X connect 49 0 54 0;
#X connect 50 0 48 0;
#X connect 51 0 49 0;
#X connect 52 0 53 1;
#X connect 53 0 6 0;
#X connect 54 0 48 2;
#X connect 55 0 48 1;
#X connect 56 0 7 1;
#X connect 57 0 7 2;
#X connect 58 0 23 1;
#X connect 59 0 23 2;
#X restore 211 299 pd sub4;
#X obj 58 14 adc~ 3;
#X connect 0 0 1 0;
#X connect 1 0 6 2;
#X connect 1 0 7 2;
#X connect 1 0 8 2;
#X connect 1 0 9 2;
#X connect 2 0 0 0;
#X connect 3 0 6 1;
#X connect 3 0 7 1;
#X connect 3 0 8 1;
#X connect 3 0 9 1;
#X connect 4 3 3 0;
#X connect 4 4 2 0;
#X connect 5 0 6 0;
#X connect 5 0 7 0;
#X connect 5 0 8 0;
#X connect 5 0 9 0;
#X connect 10 0 4 0;
