#N canvas 902 75 450 662 10;
#X obj 625 -58 gemhead;
#X obj 653 115 pix_kaleidoscope;
#X obj 653 169 pix_texture;
#X floatatom 669 56 5 0 0 0 - - -, f 5;
#X floatatom 705 56 5 0 0 0 - - -, f 5;
#X floatatom 712 297 5 0 0 0 - - -, f 5;
#X obj 653 346 square;
#X floatatom 692 212 5 0 0 0 - - -, f 5;
#X obj 654 248 translateXYZ;
#X floatatom 731 210 5 0 0 0 - - -, f 5;
#X msg 817 170 2;
#X msg 795 125 bang;
#X obj 817 83 loadbang;
#X msg 860 169 bang;
#X obj 650 12 pix_image ~/nxI/compositions/nxAeterna/images/nxAeterna-03.jpg
;
#X msg 784 170 -2;
#X msg 768 259 2;
#X connect 0 0 14 0;
#X connect 1 0 2 0;
#X connect 2 0 8 0;
#X connect 3 0 1 1;
#X connect 4 0 1 2;
#X connect 5 0 6 1;
#X connect 7 0 8 1;
#X connect 8 0 6 0;
#X connect 9 0 8 2;
#X connect 10 0 9 0;
#X connect 11 0 15 0;
#X connect 11 0 10 0;
#X connect 11 0 13 0;
#X connect 12 0 11 0;
#X connect 12 0 13 0;
#X connect 13 0 16 0;
#X connect 14 0 1 0;
#X connect 15 0 7 0;
#X connect 16 0 5 0;
