#N canvas 522 176 700 535 10;
#X obj 128 -6 gemhead;
#X obj 156 167 pix_kaleidoscope;
#X obj 156 221 pix_texture;
#X floatatom 172 108 5 0 0 0 - - -, f 5;
#X floatatom 208 108 5 0 0 0 - - -, f 5;
#X floatatom 215 349 5 0 0 0 - - -, f 5;
#X obj 156 398 square;
#X floatatom 195 264 5 0 0 0 - - -, f 5;
#X obj 157 300 translateXYZ;
#X floatatom 234 262 5 0 0 0 - - -, f 5;
#X msg 298 177 bang;
#X obj 320 135 loadbang;
#X msg 363 221 bang;
#X msg 337 293 2;
#X obj 153 64 pix_image ~/nxI/compositions/nxAeterna/images/nxAeterna-01.jpg
;
#X msg 320 222 -2;
#X msg 287 222 -2;
#X connect 0 0 14 0;
#X connect 1 0 2 0;
#X connect 2 0 8 0;
#X connect 3 0 1 1;
#X connect 4 0 1 2;
#X connect 5 0 6 1;
#X connect 7 0 8 1;
#X connect 8 0 6 0;
#X connect 9 0 8 2;
#X connect 10 0 16 0;
#X connect 10 0 15 0;
#X connect 10 0 12 0;
#X connect 11 0 10 0;
#X connect 11 0 12 0;
#X connect 12 0 13 0;
#X connect 13 0 5 0;
#X connect 14 0 1 0;
#X connect 15 0 9 0;
#X connect 16 0 7 0;
