#N canvas 210 321 459 318 10;
#X floatatom 942 124 5 0 0 0 - - -, f 5;
#X obj 844 85 unpack;
#X floatatom 844 127 5 0 0 0 - - -, f 5;
#X obj 817 135 bng 15 250 50 0 empty empty empty 17 7 0 10 -262144
-1 -1;
#X obj 721 20 gemhead;
#N canvas 16 151 1165 727 linea1 0;
#X obj 547 602 rectangle;
#X obj 547 298 alpha;
#X obj 566 275 tgl 15 0 empty empty empty 17 7 0 10 -262144 -1 -1 1
1;
#X floatatom 590 275 2 0 19 0 - - -, f 2;
#X obj 967 503 / 10;
#X obj 1019 501 / 10;
#X floatatom 919 553 5 0 0 0 - - -, f 5;
#X floatatom 972 555 5 0 0 0 - - -, f 5;
#X floatatom 1059 466 5 0 0 0 - - -, f 5;
#X floatatom 988 467 5 0 0 0 - - -, f 5;
#X obj 547 384 translateXYZ;
#X obj 615 231 loadbang;
#X floatatom 718 530 5 0 0 0 - - -, f 5;
#X obj 879 402 nxRandom;
#X obj 848 370 delay 1;
#X msg 875 337 bang;
#X obj 875 311 loadbang;
#X obj 1101 400 nxRandom;
#X obj 1070 368 delay 1;
#X msg 1097 335 bang;
#X obj 1097 309 loadbang;
#X obj 357 273 colorRGB 0 0 0 1;
#X floatatom 747 194 5 0 1 0 - - -, f 5;
#X obj 747 168 nxRandom;
#X obj 716 136 delay 1;
#X msg 743 103 bang;
#X obj 743 77 loadbang;
#X msg 769 135 0.1;
#X msg 812 135 0.8;
#X floatatom 615 196 5 0 1 0 - - -, f 5;
#X obj 615 170 nxRandom;
#X obj 584 138 delay 1;
#X msg 611 105 bang;
#X obj 611 79 loadbang;
#X msg 637 137 0.1;
#X msg 680 137 0.8;
#X floatatom 488 197 5 0 1 0 - - -, f 5;
#X obj 488 171 nxRandom;
#X obj 457 139 delay 1;
#X msg 484 106 bang;
#X obj 484 80 loadbang;
#X msg 510 138 0.1;
#X msg 553 138 0.8;
#X floatatom 386 230 5 0 1 0 - - -, f 5;
#X obj 386 204 nxRandom;
#X obj 355 172 delay 1;
#X msg 382 139 bang;
#X obj 382 113 loadbang;
#X msg 408 171 0.1;
#X msg 451 171 0.8;
#X msg 658 369 bang;
#X obj 718 492 / 100;
#X obj 718 417 metro 10;
#X floatatom 747 378 5 0 1 0 - - -, f 5;
#X obj 747 352 nxRandom;
#X obj 716 320 delay 1;
#X msg 743 287 bang;
#X obj 743 261 loadbang;
#X obj 653 340 delay 2;
#X msg 769 319 1;
#X msg 812 319 19;
#X obj 1077 221 inlet;
#X obj 544 20 inlet;
#X obj 245 49 inlet;
#X msg 901 369 30;
#X msg 944 369 300;
#X msg 1123 367 10;
#X msg 1166 367 30;
#X floatatom 883 191 5 0 1 0 - - -, f 5;
#X obj 883 165 nxRandom;
#X obj 852 133 delay 1;
#X msg 879 100 bang;
#X obj 879 74 loadbang;
#X msg 905 132 -4;
#X msg 948 132 4;
#X msg 659 418 1;
#X obj 718 460 counter -600 50;
#X connect 1 0 10 0;
#X connect 2 0 1 0;
#X connect 3 0 1 1;
#X connect 4 0 6 0;
#X connect 5 0 7 0;
#X connect 6 0 0 1;
#X connect 7 0 0 2;
#X connect 8 0 5 1;
#X connect 9 0 4 1;
#X connect 10 0 0 0;
#X connect 11 0 2 0;
#X connect 12 0 10 1;
#X connect 13 0 9 0;
#X connect 14 0 13 0;
#X connect 15 0 14 0;
#X connect 15 0 64 0;
#X connect 15 0 65 0;
#X connect 16 0 15 0;
#X connect 17 0 8 0;
#X connect 18 0 17 0;
#X connect 19 0 18 0;
#X connect 19 0 66 0;
#X connect 19 0 67 0;
#X connect 20 0 19 0;
#X connect 21 0 1 0;
#X connect 22 0 21 4;
#X connect 23 0 22 0;
#X connect 24 0 23 0;
#X connect 25 0 24 0;
#X connect 25 0 27 0;
#X connect 25 0 28 0;
#X connect 26 0 25 0;
#X connect 27 0 23 1;
#X connect 28 0 23 2;
#X connect 29 0 21 3;
#X connect 30 0 29 0;
#X connect 31 0 30 0;
#X connect 32 0 31 0;
#X connect 32 0 34 0;
#X connect 32 0 35 0;
#X connect 33 0 32 0;
#X connect 34 0 30 1;
#X connect 35 0 30 2;
#X connect 36 0 21 2;
#X connect 37 0 36 0;
#X connect 38 0 37 0;
#X connect 39 0 38 0;
#X connect 39 0 41 0;
#X connect 39 0 42 0;
#X connect 40 0 39 0;
#X connect 41 0 37 1;
#X connect 42 0 37 2;
#X connect 43 0 21 1;
#X connect 44 0 43 0;
#X connect 45 0 44 0;
#X connect 46 0 45 0;
#X connect 46 0 48 0;
#X connect 46 0 49 0;
#X connect 47 0 46 0;
#X connect 48 0 44 1;
#X connect 49 0 44 2;
#X connect 50 0 52 0;
#X connect 51 0 12 0;
#X connect 52 0 76 0;
#X connect 53 0 52 1;
#X connect 54 0 53 0;
#X connect 55 0 54 0;
#X connect 56 0 55 0;
#X connect 56 0 59 0;
#X connect 56 0 60 0;
#X connect 57 0 56 0;
#X connect 57 0 58 0;
#X connect 57 0 75 0;
#X connect 58 0 50 0;
#X connect 59 0 54 1;
#X connect 60 0 54 2;
#X connect 61 0 4 0;
#X connect 61 0 5 0;
#X connect 62 0 32 0;
#X connect 62 0 39 0;
#X connect 62 0 46 0;
#X connect 63 0 21 0;
#X connect 64 0 13 1;
#X connect 65 0 13 2;
#X connect 66 0 17 1;
#X connect 67 0 17 2;
#X connect 68 0 10 2;
#X connect 69 0 68 0;
#X connect 70 0 69 0;
#X connect 71 0 70 0;
#X connect 71 0 73 0;
#X connect 71 0 74 0;
#X connect 72 0 71 0;
#X connect 73 0 69 1;
#X connect 74 0 69 2;
#X connect 75 0 76 1;
#X connect 76 0 51 0;
#X restore 792 217 pd linea1;
#X obj 789 19 adc~ 1;
#N canvas 16 151 1165 727 linea2 0;
#X obj 547 602 rectangle;
#X obj 547 298 alpha;
#X obj 566 275 tgl 15 0 empty empty empty 17 7 0 10 -262144 -1 -1 1
1;
#X floatatom 590 275 2 0 19 0 - - -, f 2;
#X obj 967 503 / 10;
#X obj 1019 501 / 10;
#X floatatom 919 553 5 0 0 0 - - -, f 5;
#X floatatom 972 555 5 0 0 0 - - -, f 5;
#X floatatom 1059 466 5 0 0 0 - - -, f 5;
#X floatatom 988 467 5 0 0 0 - - -, f 5;
#X obj 547 384 translateXYZ;
#X obj 615 231 loadbang;
#X floatatom 718 530 5 0 0 0 - - -, f 5;
#X obj 879 402 nxRandom;
#X obj 848 370 delay 1;
#X msg 875 337 bang;
#X obj 875 311 loadbang;
#X obj 1101 400 nxRandom;
#X obj 1070 368 delay 1;
#X msg 1097 335 bang;
#X obj 1097 309 loadbang;
#X obj 357 273 colorRGB 0 0 0 1;
#X floatatom 747 194 5 0 1 0 - - -, f 5;
#X obj 747 168 nxRandom;
#X obj 716 136 delay 1;
#X msg 743 103 bang;
#X obj 743 77 loadbang;
#X msg 769 135 0.1;
#X msg 812 135 0.8;
#X floatatom 615 196 5 0 1 0 - - -, f 5;
#X obj 615 170 nxRandom;
#X obj 584 138 delay 1;
#X msg 611 105 bang;
#X obj 611 79 loadbang;
#X msg 637 137 0.1;
#X msg 680 137 0.8;
#X floatatom 488 197 5 0 1 0 - - -, f 5;
#X obj 488 171 nxRandom;
#X obj 457 139 delay 1;
#X msg 484 106 bang;
#X obj 484 80 loadbang;
#X msg 510 138 0.1;
#X msg 553 138 0.8;
#X floatatom 386 230 5 0 1 0 - - -, f 5;
#X obj 386 204 nxRandom;
#X obj 355 172 delay 1;
#X msg 382 139 bang;
#X obj 382 113 loadbang;
#X msg 408 171 0.1;
#X msg 451 171 0.8;
#X msg 658 369 bang;
#X obj 718 492 / 100;
#X obj 718 417 metro 10;
#X floatatom 747 378 5 0 1 0 - - -, f 5;
#X obj 747 352 nxRandom;
#X obj 716 320 delay 1;
#X msg 743 287 bang;
#X obj 743 261 loadbang;
#X obj 653 340 delay 2;
#X msg 769 319 1;
#X msg 812 319 19;
#X obj 1077 221 inlet;
#X obj 544 20 inlet;
#X obj 245 49 inlet;
#X msg 901 369 30;
#X msg 944 369 300;
#X msg 1123 367 10;
#X msg 1166 367 30;
#X floatatom 883 191 5 0 1 0 - - -, f 5;
#X obj 883 165 nxRandom;
#X obj 852 133 delay 1;
#X msg 879 100 bang;
#X obj 879 74 loadbang;
#X msg 905 132 -4;
#X msg 948 132 4;
#X msg 659 418 1;
#X obj 718 460 counter -600 50;
#X connect 1 0 10 0;
#X connect 2 0 1 0;
#X connect 3 0 1 1;
#X connect 4 0 6 0;
#X connect 5 0 7 0;
#X connect 6 0 0 1;
#X connect 7 0 0 2;
#X connect 8 0 5 1;
#X connect 9 0 4 1;
#X connect 10 0 0 0;
#X connect 11 0 2 0;
#X connect 12 0 10 1;
#X connect 13 0 9 0;
#X connect 14 0 13 0;
#X connect 15 0 14 0;
#X connect 15 0 64 0;
#X connect 15 0 65 0;
#X connect 16 0 15 0;
#X connect 17 0 8 0;
#X connect 18 0 17 0;
#X connect 19 0 18 0;
#X connect 19 0 66 0;
#X connect 19 0 67 0;
#X connect 20 0 19 0;
#X connect 21 0 1 0;
#X connect 22 0 21 4;
#X connect 23 0 22 0;
#X connect 24 0 23 0;
#X connect 25 0 24 0;
#X connect 25 0 27 0;
#X connect 25 0 28 0;
#X connect 26 0 25 0;
#X connect 27 0 23 1;
#X connect 28 0 23 2;
#X connect 29 0 21 3;
#X connect 30 0 29 0;
#X connect 31 0 30 0;
#X connect 32 0 31 0;
#X connect 32 0 34 0;
#X connect 32 0 35 0;
#X connect 33 0 32 0;
#X connect 34 0 30 1;
#X connect 35 0 30 2;
#X connect 36 0 21 2;
#X connect 37 0 36 0;
#X connect 38 0 37 0;
#X connect 39 0 38 0;
#X connect 39 0 41 0;
#X connect 39 0 42 0;
#X connect 40 0 39 0;
#X connect 41 0 37 1;
#X connect 42 0 37 2;
#X connect 43 0 21 1;
#X connect 44 0 43 0;
#X connect 45 0 44 0;
#X connect 46 0 45 0;
#X connect 46 0 48 0;
#X connect 46 0 49 0;
#X connect 47 0 46 0;
#X connect 48 0 44 1;
#X connect 49 0 44 2;
#X connect 50 0 52 0;
#X connect 51 0 12 0;
#X connect 52 0 76 0;
#X connect 53 0 52 1;
#X connect 54 0 53 0;
#X connect 55 0 54 0;
#X connect 56 0 55 0;
#X connect 56 0 59 0;
#X connect 56 0 60 0;
#X connect 57 0 56 0;
#X connect 57 0 58 0;
#X connect 57 0 75 0;
#X connect 58 0 50 0;
#X connect 59 0 54 1;
#X connect 60 0 54 2;
#X connect 61 0 4 0;
#X connect 61 0 5 0;
#X connect 62 0 32 0;
#X connect 62 0 39 0;
#X connect 62 0 46 0;
#X connect 63 0 21 0;
#X connect 64 0 13 1;
#X connect 65 0 13 2;
#X connect 66 0 17 1;
#X connect 67 0 17 2;
#X connect 68 0 10 2;
#X connect 69 0 68 0;
#X connect 70 0 69 0;
#X connect 71 0 70 0;
#X connect 71 0 73 0;
#X connect 71 0 74 0;
#X connect 72 0 71 0;
#X connect 73 0 69 1;
#X connect 74 0 69 2;
#X connect 75 0 76 1;
#X connect 76 0 51 0;
#X restore 854 217 pd linea2;
#N canvas 16 151 1165 727 linea3 0;
#X obj 547 602 rectangle;
#X obj 547 298 alpha;
#X obj 566 275 tgl 15 0 empty empty empty 17 7 0 10 -262144 -1 -1 1
1;
#X floatatom 590 275 2 0 19 0 - - -, f 2;
#X obj 967 503 / 10;
#X obj 1019 501 / 10;
#X floatatom 919 553 5 0 0 0 - - -, f 5;
#X floatatom 972 555 5 0 0 0 - - -, f 5;
#X floatatom 1059 466 5 0 0 0 - - -, f 5;
#X floatatom 988 467 5 0 0 0 - - -, f 5;
#X obj 547 384 translateXYZ;
#X obj 615 231 loadbang;
#X floatatom 718 530 5 0 0 0 - - -, f 5;
#X obj 879 402 nxRandom;
#X obj 848 370 delay 1;
#X msg 875 337 bang;
#X obj 875 311 loadbang;
#X obj 1101 400 nxRandom;
#X obj 1070 368 delay 1;
#X msg 1097 335 bang;
#X obj 1097 309 loadbang;
#X obj 357 273 colorRGB 0 0 0 1;
#X floatatom 747 194 5 0 1 0 - - -, f 5;
#X obj 747 168 nxRandom;
#X obj 716 136 delay 1;
#X msg 743 103 bang;
#X obj 743 77 loadbang;
#X msg 769 135 0.1;
#X msg 812 135 0.8;
#X floatatom 615 196 5 0 1 0 - - -, f 5;
#X obj 615 170 nxRandom;
#X obj 584 138 delay 1;
#X msg 611 105 bang;
#X obj 611 79 loadbang;
#X msg 637 137 0.1;
#X msg 680 137 0.8;
#X floatatom 488 197 5 0 1 0 - - -, f 5;
#X obj 488 171 nxRandom;
#X obj 457 139 delay 1;
#X msg 484 106 bang;
#X obj 484 80 loadbang;
#X msg 510 138 0.1;
#X msg 553 138 0.8;
#X floatatom 386 230 5 0 1 0 - - -, f 5;
#X obj 386 204 nxRandom;
#X obj 355 172 delay 1;
#X msg 382 139 bang;
#X obj 382 113 loadbang;
#X msg 408 171 0.1;
#X msg 451 171 0.8;
#X msg 658 369 bang;
#X obj 718 492 / 100;
#X obj 718 417 metro 10;
#X floatatom 747 378 5 0 1 0 - - -, f 5;
#X obj 747 352 nxRandom;
#X obj 716 320 delay 1;
#X msg 743 287 bang;
#X obj 743 261 loadbang;
#X obj 653 340 delay 2;
#X msg 769 319 1;
#X msg 812 319 19;
#X obj 1077 221 inlet;
#X obj 544 20 inlet;
#X obj 245 49 inlet;
#X msg 901 369 30;
#X msg 944 369 300;
#X msg 1123 367 10;
#X msg 1166 367 30;
#X floatatom 883 191 5 0 1 0 - - -, f 5;
#X obj 883 165 nxRandom;
#X obj 852 133 delay 1;
#X msg 879 100 bang;
#X obj 879 74 loadbang;
#X msg 905 132 -4;
#X msg 948 132 4;
#X msg 659 418 1;
#X obj 718 460 counter -600 50;
#X connect 1 0 10 0;
#X connect 2 0 1 0;
#X connect 3 0 1 1;
#X connect 4 0 6 0;
#X connect 5 0 7 0;
#X connect 6 0 0 1;
#X connect 7 0 0 2;
#X connect 8 0 5 1;
#X connect 9 0 4 1;
#X connect 10 0 0 0;
#X connect 11 0 2 0;
#X connect 12 0 10 1;
#X connect 13 0 9 0;
#X connect 14 0 13 0;
#X connect 15 0 14 0;
#X connect 15 0 64 0;
#X connect 15 0 65 0;
#X connect 16 0 15 0;
#X connect 17 0 8 0;
#X connect 18 0 17 0;
#X connect 19 0 18 0;
#X connect 19 0 66 0;
#X connect 19 0 67 0;
#X connect 20 0 19 0;
#X connect 21 0 1 0;
#X connect 22 0 21 4;
#X connect 23 0 22 0;
#X connect 24 0 23 0;
#X connect 25 0 24 0;
#X connect 25 0 27 0;
#X connect 25 0 28 0;
#X connect 26 0 25 0;
#X connect 27 0 23 1;
#X connect 28 0 23 2;
#X connect 29 0 21 3;
#X connect 30 0 29 0;
#X connect 31 0 30 0;
#X connect 32 0 31 0;
#X connect 32 0 34 0;
#X connect 32 0 35 0;
#X connect 33 0 32 0;
#X connect 34 0 30 1;
#X connect 35 0 30 2;
#X connect 36 0 21 2;
#X connect 37 0 36 0;
#X connect 38 0 37 0;
#X connect 39 0 38 0;
#X connect 39 0 41 0;
#X connect 39 0 42 0;
#X connect 40 0 39 0;
#X connect 41 0 37 1;
#X connect 42 0 37 2;
#X connect 43 0 21 1;
#X connect 44 0 43 0;
#X connect 45 0 44 0;
#X connect 46 0 45 0;
#X connect 46 0 48 0;
#X connect 46 0 49 0;
#X connect 47 0 46 0;
#X connect 48 0 44 1;
#X connect 49 0 44 2;
#X connect 50 0 52 0;
#X connect 51 0 12 0;
#X connect 52 0 76 0;
#X connect 53 0 52 1;
#X connect 54 0 53 0;
#X connect 55 0 54 0;
#X connect 56 0 55 0;
#X connect 56 0 59 0;
#X connect 56 0 60 0;
#X connect 57 0 56 0;
#X connect 57 0 58 0;
#X connect 57 0 75 0;
#X connect 58 0 50 0;
#X connect 59 0 54 1;
#X connect 60 0 54 2;
#X connect 61 0 4 0;
#X connect 61 0 5 0;
#X connect 62 0 32 0;
#X connect 62 0 39 0;
#X connect 62 0 46 0;
#X connect 63 0 21 0;
#X connect 64 0 13 1;
#X connect 65 0 13 2;
#X connect 66 0 17 1;
#X connect 67 0 17 2;
#X connect 68 0 10 2;
#X connect 69 0 68 0;
#X connect 70 0 69 0;
#X connect 71 0 70 0;
#X connect 71 0 73 0;
#X connect 71 0 74 0;
#X connect 72 0 71 0;
#X connect 73 0 69 1;
#X connect 74 0 69 2;
#X connect 75 0 76 1;
#X connect 76 0 51 0;
#X restore 915 217 pd linea3;
#N canvas 16 151 1165 727 linea4 0;
#X obj 547 602 rectangle;
#X obj 547 298 alpha;
#X obj 566 275 tgl 15 0 empty empty empty 17 7 0 10 -262144 -1 -1 1
1;
#X floatatom 590 275 2 0 19 0 - - -, f 2;
#X obj 967 503 / 10;
#X obj 1019 501 / 10;
#X floatatom 919 553 5 0 0 0 - - -, f 5;
#X floatatom 972 555 5 0 0 0 - - -, f 5;
#X floatatom 1059 466 5 0 0 0 - - -, f 5;
#X floatatom 988 467 5 0 0 0 - - -, f 5;
#X obj 547 384 translateXYZ;
#X obj 615 231 loadbang;
#X floatatom 718 530 5 0 0 0 - - -, f 5;
#X obj 879 402 nxRandom;
#X obj 848 370 delay 1;
#X msg 875 337 bang;
#X obj 875 311 loadbang;
#X obj 1101 400 nxRandom;
#X obj 1070 368 delay 1;
#X msg 1097 335 bang;
#X obj 1097 309 loadbang;
#X obj 357 273 colorRGB 0 0 0 1;
#X floatatom 747 194 5 0 1 0 - - -, f 5;
#X obj 747 168 nxRandom;
#X obj 716 136 delay 1;
#X msg 743 103 bang;
#X obj 743 77 loadbang;
#X msg 769 135 0.1;
#X msg 812 135 0.8;
#X floatatom 615 196 5 0 1 0 - - -, f 5;
#X obj 615 170 nxRandom;
#X obj 584 138 delay 1;
#X msg 611 105 bang;
#X obj 611 79 loadbang;
#X msg 637 137 0.1;
#X msg 680 137 0.8;
#X floatatom 488 197 5 0 1 0 - - -, f 5;
#X obj 488 171 nxRandom;
#X obj 457 139 delay 1;
#X msg 484 106 bang;
#X obj 484 80 loadbang;
#X msg 510 138 0.1;
#X msg 553 138 0.8;
#X floatatom 386 230 5 0 1 0 - - -, f 5;
#X obj 386 204 nxRandom;
#X obj 355 172 delay 1;
#X msg 382 139 bang;
#X obj 382 113 loadbang;
#X msg 408 171 0.1;
#X msg 451 171 0.8;
#X msg 658 369 bang;
#X obj 718 492 / 100;
#X obj 718 417 metro 10;
#X floatatom 747 378 5 0 1 0 - - -, f 5;
#X obj 747 352 nxRandom;
#X obj 716 320 delay 1;
#X msg 743 287 bang;
#X obj 743 261 loadbang;
#X obj 653 340 delay 2;
#X msg 769 319 1;
#X msg 812 319 19;
#X obj 1077 221 inlet;
#X obj 544 20 inlet;
#X obj 245 49 inlet;
#X msg 901 369 30;
#X msg 944 369 300;
#X msg 1123 367 10;
#X msg 1166 367 30;
#X floatatom 883 191 5 0 1 0 - - -, f 5;
#X obj 883 165 nxRandom;
#X obj 852 133 delay 1;
#X msg 879 100 bang;
#X obj 879 74 loadbang;
#X msg 905 132 -4;
#X msg 948 132 4;
#X msg 659 418 1;
#X obj 718 460 counter -600 50;
#X connect 1 0 10 0;
#X connect 2 0 1 0;
#X connect 3 0 1 1;
#X connect 4 0 6 0;
#X connect 5 0 7 0;
#X connect 6 0 0 1;
#X connect 7 0 0 2;
#X connect 8 0 5 1;
#X connect 9 0 4 1;
#X connect 10 0 0 0;
#X connect 11 0 2 0;
#X connect 12 0 10 1;
#X connect 13 0 9 0;
#X connect 14 0 13 0;
#X connect 15 0 14 0;
#X connect 15 0 64 0;
#X connect 15 0 65 0;
#X connect 16 0 15 0;
#X connect 17 0 8 0;
#X connect 18 0 17 0;
#X connect 19 0 18 0;
#X connect 19 0 66 0;
#X connect 19 0 67 0;
#X connect 20 0 19 0;
#X connect 21 0 1 0;
#X connect 22 0 21 4;
#X connect 23 0 22 0;
#X connect 24 0 23 0;
#X connect 25 0 24 0;
#X connect 25 0 27 0;
#X connect 25 0 28 0;
#X connect 26 0 25 0;
#X connect 27 0 23 1;
#X connect 28 0 23 2;
#X connect 29 0 21 3;
#X connect 30 0 29 0;
#X connect 31 0 30 0;
#X connect 32 0 31 0;
#X connect 32 0 34 0;
#X connect 32 0 35 0;
#X connect 33 0 32 0;
#X connect 34 0 30 1;
#X connect 35 0 30 2;
#X connect 36 0 21 2;
#X connect 37 0 36 0;
#X connect 38 0 37 0;
#X connect 39 0 38 0;
#X connect 39 0 41 0;
#X connect 39 0 42 0;
#X connect 40 0 39 0;
#X connect 41 0 37 1;
#X connect 42 0 37 2;
#X connect 43 0 21 1;
#X connect 44 0 43 0;
#X connect 45 0 44 0;
#X connect 46 0 45 0;
#X connect 46 0 48 0;
#X connect 46 0 49 0;
#X connect 47 0 46 0;
#X connect 48 0 44 1;
#X connect 49 0 44 2;
#X connect 50 0 52 0;
#X connect 51 0 12 0;
#X connect 52 0 76 0;
#X connect 53 0 52 1;
#X connect 54 0 53 0;
#X connect 55 0 54 0;
#X connect 56 0 55 0;
#X connect 56 0 59 0;
#X connect 56 0 60 0;
#X connect 57 0 56 0;
#X connect 57 0 58 0;
#X connect 57 0 75 0;
#X connect 58 0 50 0;
#X connect 59 0 54 1;
#X connect 60 0 54 2;
#X connect 61 0 4 0;
#X connect 61 0 5 0;
#X connect 62 0 32 0;
#X connect 62 0 39 0;
#X connect 62 0 46 0;
#X connect 63 0 21 0;
#X connect 64 0 13 1;
#X connect 65 0 13 2;
#X connect 66 0 17 1;
#X connect 67 0 17 2;
#X connect 68 0 10 2;
#X connect 69 0 68 0;
#X connect 70 0 69 0;
#X connect 71 0 70 0;
#X connect 71 0 73 0;
#X connect 71 0 74 0;
#X connect 72 0 71 0;
#X connect 73 0 69 1;
#X connect 74 0 69 2;
#X connect 75 0 76 1;
#X connect 76 0 51 0;
#X restore 977 217 pd linea4;
#X obj 789 56 fiddle~ 1024 1 20 3;
#X connect 0 0 5 2;
#X connect 0 0 7 2;
#X connect 0 0 8 2;
#X connect 0 0 9 2;
#X connect 1 0 2 0;
#X connect 3 0 5 1;
#X connect 3 0 7 1;
#X connect 3 0 8 1;
#X connect 3 0 9 1;
#X connect 4 0 5 0;
#X connect 4 0 7 0;
#X connect 4 0 8 0;
#X connect 4 0 9 0;
#X connect 6 0 10 0;
#X connect 10 1 3 0;
#X connect 10 2 1 0;
#X connect 10 3 0 0;
