#N canvas 814 45 450 725 10;
#X obj 31 -162 adc~ 1;
#X floatatom 132 -54 5 0 0 0 - - -, f 5;
#X obj 31 -125 fiddle~ 1924 1 20 3;
#X obj 86 -96 unpack;
#X floatatom 86 -54 5 0 0 0 - - -, f 5;
#X obj 30 -98 gemhead;
#X obj 120 59 part_head;
#X obj 120 113 part_color;
#X obj 120 424 part_draw;
#X msg 257 46 0 1 0;
#X text 251 14 set the color range;
#X text 221 103 set the size;
#X obj 120 308 part_gravity 0 -0.01 0;
#X obj 120 183 part_velocity sphere 0 0.2 0 0.2;
#X text 232 246 set the number per frame;
#X text 232 355 set the age to kill at;
#X text 288 304 gravity to affect the particles;
#X text 350 151 the velocity domain;
#X text 348 168 a sphere at 0 \, 0.2 \, 0;
#X msg 141 390 draw line;
#X msg 220 390 draw point;
#X msg 315 46 1 0 0;
#X obj 120 247 part_source 25;
#X obj 120 358 part_killold 45;
#X text 348 185 radius = 0.2;
#X msg 35 19 speed \$1;
#X obj 132 -23 / 100;
#X msg 231 128 10;
#X obj 120 151 part_size 3;
#X connect 0 0 2 0;
#X connect 1 0 26 0;
#X connect 2 2 3 0;
#X connect 2 3 1 0;
#X connect 3 0 4 0;
#X connect 5 0 6 0;
#X connect 6 0 7 0;
#X connect 7 0 28 0;
#X connect 9 0 7 1;
#X connect 12 0 23 0;
#X connect 13 0 22 0;
#X connect 19 0 8 0;
#X connect 20 0 8 0;
#X connect 21 0 7 2;
#X connect 22 0 12 0;
#X connect 23 0 8 0;
#X connect 25 0 6 0;
#X connect 26 0 25 0;
#X connect 27 0 28 1;
#X connect 28 0 13 0;
