#N canvas 461 113 847 702 10;
#X obj 723 -317 gemhead;
#X obj 750 49 pix_texture;
#X msg 733 150 draw fill;
#X obj 810 299 polygon 6;
#X msg 880 206 0 \$1 0;
#X floatatom 880 189 5 0 0 0 - - -, f 5;
#X floatatom 927 188 5 0 0 0 - - -, f 5;
#X msg 927 205 \$1 0 0;
#X floatatom 977 188 5 0 0 0 - - -, f 5;
#X msg 977 205 0 0 \$1;
#X msg 1036 204 0 \$1 0;
#X floatatom 1036 187 5 0 0 0 - - -, f 5;
#X floatatom 1083 186 5 0 0 0 - - -, f 5;
#X msg 1083 203 \$1 0 0;
#X floatatom 1133 186 5 0 0 0 - - -, f 5;
#X msg 1133 203 0 0 \$1;
#X obj 1091 25 rotateXYZ;
#X floatatom 1108 -13 5 0 0 0 - - -, f 5;
#X floatatom 1144 -12 5 0 0 0 - - -, f 5;
#X floatatom 1180 -11 5 0 0 0 - - -, f 5;
#X msg 777 -287 thread 0;
#X obj 777 -317 loadbang;
#X floatatom 789 -173 5 0 0 0 - - -, f 5;
#X msg 789 -149 open ~/nxI/compositions/nxAeterna/images/nxAeterna-0\$1.jpg
;
#X obj 722 -88 pix_image;
#X obj 880 -218 nxRandom;
#X msg 902 -245 1;
#X msg 933 -245 9;
#X obj 880 -191 int;
#X msg 879 -282 bang;
#X obj 851 -244 delay 1;
#X obj 733 120 loadbang;
#X obj 1173 -123 counter;
#X floatatom 1173 -82 5 0 0 0 - - -, f 5;
#X obj 1173 -168 metro;
#X obj 1200 -227 nxRandom;
#X floatatom 1200 -197 5 0 0 0 - - -, f 5;
#X obj 1170 -260 delay 1;
#X msg 1170 -299 bang;
#X obj 1133 -225 delay 2;
#X obj 1170 -325 loadbang;
#X msg 1254 -261 150;
#X msg 1222 -261 50;
#N canvas 174 122 450 424 rscla 0;
#X obj 190 182 nxRandom;
#X msg 243 145 -10;
#X msg 274 145 0;
#X obj 190 146 delay 1;
#X msg 190 104 bang;
#X floatatom 190 238 5 0 0 0 - - -, f 5;
#X obj 312 182 nxRandom;
#X obj 312 146 delay 1;
#X msg 312 104 bang;
#X msg 368 146 0;
#X msg 399 146 10;
#X floatatom 312 236 5 0 0 0 - - -, f 5;
#X msg 190 65 bang, f 5;
#X obj 190 209 int;
#X obj 312 209 int;
#X obj 189 31 loadbang;
#X obj 67 320 autoscale;
#X floatatom 67 352 5 0 0 0 - - -, f 5;
#X obj 68 34 inlet;
#X obj 68 105 + 20;
#X obj 67 386 outlet;
#X connect 0 0 13 0;
#X connect 1 0 0 1;
#X connect 2 0 0 2;
#X connect 3 0 0 0;
#X connect 4 0 3 0;
#X connect 4 0 1 0;
#X connect 4 0 2 0;
#X connect 5 0 16 1;
#X connect 6 0 14 0;
#X connect 7 0 6 0;
#X connect 8 0 7 0;
#X connect 8 0 9 0;
#X connect 8 0 10 0;
#X connect 9 0 6 1;
#X connect 10 0 6 2;
#X connect 11 0 16 2;
#X connect 12 0 4 0;
#X connect 12 0 8 0;
#X connect 13 0 5 0;
#X connect 14 0 11 0;
#X connect 15 0 12 0;
#X connect 16 0 17 0;
#X connect 17 0 20 0;
#X connect 18 0 19 0;
#X connect 19 0 16 0;
#X restore 879 121 pd rscla;
#X floatatom 623 -186 5 0 0 0 - - -, f 5;
#X obj 526 -256 fiddle~ 1924 1 20 3;
#X obj 581 -227 unpack;
#X floatatom 581 -185 5 0 0 0 - - -, f 5;
#X obj 526 -293 adc~ 2;
#N canvas 174 122 450 424 rscla2 0;
#X obj 69 270 nxRandom;
#X msg 122 233 -10;
#X obj 69 234 delay 1;
#X msg 69 192 bang;
#X floatatom 69 326 5 0 0 0 - - -, f 5;
#X msg 69 153 bang, f 5;
#X obj 69 297 int;
#X obj 68 119 loadbang;
#X obj 69 379 outlet;
#X msg 153 233 10;
#X connect 0 0 6 0;
#X connect 1 0 0 1;
#X connect 2 0 0 0;
#X connect 3 0 2 0;
#X connect 3 0 1 0;
#X connect 3 0 9 0;
#X connect 4 0 8 0;
#X connect 5 0 3 0;
#X connect 6 0 4 0;
#X connect 7 0 5 0;
#X connect 9 0 0 2;
#X restore 1048 121 pd rscla2;
#N canvas 174 122 450 424 rscla2 0;
#X obj 69 270 nxRandom;
#X msg 122 233 -10;
#X obj 69 234 delay 1;
#X msg 69 192 bang;
#X floatatom 69 326 5 0 0 0 - - -, f 5;
#X msg 69 153 bang, f 5;
#X obj 69 297 int;
#X obj 68 119 loadbang;
#X obj 69 379 outlet;
#X msg 153 233 10;
#X connect 0 0 6 0;
#X connect 1 0 0 1;
#X connect 2 0 0 0;
#X connect 3 0 2 0;
#X connect 3 0 1 0;
#X connect 3 0 9 0;
#X connect 4 0 8 0;
#X connect 5 0 3 0;
#X connect 6 0 4 0;
#X connect 7 0 5 0;
#X connect 9 0 0 2;
#X restore 1112 121 pd rscla2;
#N canvas 174 122 450 424 rscla2 0;
#X obj 69 270 nxRandom;
#X msg 122 233 -10;
#X obj 69 234 delay 1;
#X msg 69 192 bang;
#X floatatom 69 326 5 0 0 0 - - -, f 5;
#X msg 69 153 bang, f 5;
#X obj 69 297 int;
#X obj 68 119 loadbang;
#X obj 69 379 outlet;
#X msg 153 233 10;
#X connect 0 0 6 0;
#X connect 1 0 0 1;
#X connect 2 0 0 0;
#X connect 3 0 2 0;
#X connect 3 0 1 0;
#X connect 3 0 9 0;
#X connect 4 0 8 0;
#X connect 5 0 3 0;
#X connect 6 0 4 0;
#X connect 7 0 5 0;
#X connect 9 0 0 2;
#X restore 1175 121 pd rscla2;
#N canvas 174 122 450 424 rscla2 0;
#X obj 69 270 nxRandom;
#X msg 122 233 -10;
#X obj 69 234 delay 1;
#X msg 69 192 bang;
#X floatatom 69 326 5 0 0 0 - - -, f 5;
#X msg 69 153 bang, f 5;
#X obj 69 297 int;
#X obj 68 119 loadbang;
#X obj 69 379 outlet;
#X msg 153 233 10;
#X connect 0 0 6 0;
#X connect 1 0 0 1;
#X connect 2 0 0 0;
#X connect 3 0 2 0;
#X connect 3 0 1 0;
#X connect 3 0 9 0;
#X connect 4 0 8 0;
#X connect 5 0 3 0;
#X connect 6 0 4 0;
#X connect 7 0 5 0;
#X connect 9 0 0 2;
#X restore 929 86 pd rscla2;
#N canvas 174 122 450 424 rscla2 0;
#X obj 69 270 nxRandom;
#X msg 122 233 -10;
#X obj 69 234 delay 1;
#X msg 69 192 bang;
#X floatatom 69 326 5 0 0 0 - - -, f 5;
#X msg 69 153 bang, f 5;
#X obj 69 297 int;
#X obj 68 119 loadbang;
#X obj 69 379 outlet;
#X msg 153 233 10;
#X connect 0 0 6 0;
#X connect 1 0 0 1;
#X connect 2 0 0 0;
#X connect 3 0 2 0;
#X connect 3 0 1 0;
#X connect 3 0 9 0;
#X connect 4 0 8 0;
#X connect 5 0 3 0;
#X connect 6 0 4 0;
#X connect 7 0 5 0;
#X connect 9 0 0 2;
#X restore 993 86 pd rscla2;
#X connect 0 0 24 0;
#X connect 1 0 3 0;
#X connect 2 0 3 0;
#X connect 4 0 3 1;
#X connect 5 0 4 0;
#X connect 6 0 7 0;
#X connect 7 0 3 2;
#X connect 8 0 9 0;
#X connect 9 0 3 3;
#X connect 10 0 3 4;
#X connect 11 0 10 0;
#X connect 12 0 13 0;
#X connect 13 0 3 5;
#X connect 14 0 15 0;
#X connect 15 0 3 6;
#X connect 16 0 1 0;
#X connect 17 0 16 1;
#X connect 18 0 16 2;
#X connect 19 0 16 3;
#X connect 20 0 24 0;
#X connect 21 0 20 0;
#X connect 21 0 29 0;
#X connect 22 0 23 0;
#X connect 23 0 24 0;
#X connect 24 0 16 0;
#X connect 25 0 28 0;
#X connect 26 0 25 1;
#X connect 27 0 25 2;
#X connect 28 0 22 0;
#X connect 29 0 30 0;
#X connect 29 0 26 0;
#X connect 29 0 27 0;
#X connect 30 0 25 0;
#X connect 31 0 2 0;
#X connect 32 0 33 0;
#X connect 33 0 18 0;
#X connect 34 0 32 0;
#X connect 35 0 36 0;
#X connect 36 0 34 1;
#X connect 37 0 35 0;
#X connect 38 0 42 0;
#X connect 38 0 41 0;
#X connect 38 0 37 0;
#X connect 38 0 39 0;
#X connect 39 0 34 0;
#X connect 40 0 38 0;
#X connect 41 0 35 2;
#X connect 42 0 35 1;
#X connect 43 0 11 0;
#X connect 45 2 46 0;
#X connect 45 3 44 0;
#X connect 46 0 47 0;
#X connect 47 0 43 0;
#X connect 48 0 45 0;
#X connect 49 0 5 0;
#X connect 50 0 6 0;
#X connect 51 0 8 0;
#X connect 52 0 12 0;
#X connect 53 0 14 0;
