#N canvas 282 192 596 506 10;
#X obj 399 -603 gemhead;
#X obj 427 -430 pix_kaleidoscope;
#X obj 427 -376 pix_texture;
#X floatatom 443 -489 5 0 0 0 - - -, f 5;
#X floatatom 479 -489 5 0 0 0 - - -, f 5;
#X floatatom 486 -248 5 0 0 0 - - -, f 5;
#X obj 427 -199 square;
#X obj 424 -533 pix_image ~/nxI/compositions/nxAeterna/images/nxAeterna-06.jpg
;
#X floatatom 466 -333 5 0 0 0 - - -, f 5;
#X obj 428 -297 translateXYZ;
#X floatatom 505 -335 5 0 0 0 - - -, f 5;
#X msg 558 -375 2;
#X msg 591 -375 2;
#X msg 569 -420 bang;
#X obj 591 -462 loadbang;
#X msg 634 -376 bang;
#X msg 608 -304 2;
#X connect 0 0 7 0;
#X connect 1 0 2 0;
#X connect 2 0 9 0;
#X connect 3 0 1 1;
#X connect 4 0 1 2;
#X connect 5 0 6 1;
#X connect 7 0 1 0;
#X connect 8 0 9 1;
#X connect 9 0 6 0;
#X connect 10 0 9 2;
#X connect 11 0 8 0;
#X connect 12 0 10 0;
#X connect 13 0 11 0;
#X connect 13 0 12 0;
#X connect 13 0 15 0;
#X connect 14 0 13 0;
#X connect 14 0 15 0;
#X connect 15 0 16 0;
#X connect 16 0 5 0;
