#N canvas 981 518 179 274 10;
#X msg 25 69 \; pd dsp 1;
#X obj 25 37 loadbang;
#N canvas 230 200 1199 521 gem 0;
#X obj 158 436 gemwin;
#X msg 48 299 create \, 1;
#X obj 103 238 bng 15 250 50 0 empty empty empty 17 7 0 10 -262144
-1 -1;
#X obj 48 265 delay 10;
#X msg 252 298 cursor 0;
#X msg 252 267 border 0;
#X msg 29 367 0 \, destroy;
#X msg 254 363 color 1 1 1;
#N canvas 788 200 450 300 esc 0;
#X obj 65 20 gemkeyboard;
#X obj 65 167 outlet;
#X obj 89 71 keyname;
#X obj 128 96 sel Escape;
#X obj 65 41 sel 53;
#X obj 189 47 sel Escape;
#X obj 150 22 gemkeyname;
#X connect 0 0 4 0;
#X connect 2 1 3 0;
#X connect 3 0 1 0;
#X connect 4 0 1 0;
#X connect 5 0 1 0;
#X connect 6 1 5 0;
#X restore 29 335 pd esc;
#X obj 124 338 r nxGem;
#X obj 103 206 loadbang;
#X obj 402 334 openpatch;
#X obj 402 293 unpack s s;
#X obj 511 346 makefilename pd-%s;
#X msg 511 369 \; \$1 menuclose \;;
#X symbolatom 511 308 20 0 0 0 - - -, f 20;
#X obj 511 277 unpack s;
#X obj 349 242 s osc;
#X msg 251 230 dimen 1440 900;
#X obj 251 21 r osc;
#X obj 251 178 bng 15 250 50 0 empty empty empty 17 7 0 10 -262144
-1 -1;
#X obj 251 202 delay 20;
#X obj 158 206 delay 30;
#X obj 251 91 unpack f;
#X obj 251 123 select 1 0;
#X obj 308 155 delay 20;
#X obj 713 86 gemhead;
#X msg 739 265 alias \$1;
#X obj 739 247 tgl 15 0 empty empty empty 0 -6 0 8 -262144 -1 -1 1
1;
#X obj 804 85 loadbang;
#X obj 713 129 color 0 0 0;
#X msg 570 160 font Inconsolata.ttf;
#X obj 918 81 r osc;
#X symbolatom 918 227 20 0 0 0 - - -, f 20;
#X obj 918 196 unpack s;
#X obj 1065 203 unpack s;
#X msg 1065 233 text;
#X msg 826 211 text;
#X floatatom 712 194 5 0 0 0 - - -, f 5;
#X obj 670 221 translate 1 1 0;
#X msg 800 264 justify center;
#X msg 253 331 dimen 854 480;
#X obj 402 96 loadbang;
#X msg 402 130 listen 12000;
#X obj 402 156 netreceive -u -b;
#X obj 402 209 list trim;
#X obj 402 242 route open;
#X obj 511 243 route close;
#X obj 251 70 route fullscreen;
#X obj 251 46 list trim;
#X obj 918 111 list trim;
#X obj 918 162 route title;
#X obj 1024 161 route erase;
#X obj 402 182 oscparse;
#X obj 509 204 print;
#X msg 720 160 0;
#X msg 918 306 text \$1 / Miquel Parera & Computer;
#X obj 715 369 text2d;
#X msg 870 212 12, f 2;
#X connect 1 0 0 0;
#X connect 2 0 41 0;
#X connect 2 0 7 0;
#X connect 2 0 3 0;
#X connect 2 0 4 0;
#X connect 2 0 5 0;
#X connect 3 0 1 0;
#X connect 4 0 0 0;
#X connect 5 0 0 0;
#X connect 6 0 0 0;
#X connect 7 0 0 0;
#X connect 8 0 6 0;
#X connect 9 0 0 0;
#X connect 10 0 2 0;
#X connect 12 0 11 0;
#X connect 12 1 11 1;
#X connect 13 0 14 0;
#X connect 15 0 13 0;
#X connect 16 0 15 0;
#X connect 18 0 0 0;
#X connect 19 0 49 0;
#X connect 20 0 6 0;
#X connect 20 0 21 0;
#X connect 20 0 22 0;
#X connect 21 0 18 0;
#X connect 22 0 1 0;
#X connect 23 0 24 0;
#X connect 24 0 20 0;
#X connect 24 1 25 0;
#X connect 24 1 22 0;
#X connect 24 1 6 0;
#X connect 25 0 41 0;
#X connect 26 0 30 0;
#X connect 27 0 57 0;
#X connect 28 0 27 0;
#X connect 29 0 28 0;
#X connect 29 0 40 0;
#X connect 29 0 31 0;
#X connect 29 0 37 0;
#X connect 29 0 55 0;
#X connect 29 0 58 0;
#X connect 30 0 39 0;
#X connect 31 0 57 0;
#X connect 32 0 50 0;
#X connect 33 0 56 0;
#X connect 34 0 33 0;
#X connect 35 0 36 0;
#X connect 36 0 57 0;
#X connect 37 0 57 0;
#X connect 38 0 39 1;
#X connect 39 0 57 0;
#X connect 40 0 57 0;
#X connect 41 0 0 0;
#X connect 42 0 43 0;
#X connect 43 0 44 0;
#X connect 44 0 53 0;
#X connect 45 0 46 0;
#X connect 45 0 47 0;
#X connect 46 0 12 0;
#X connect 47 0 16 0;
#X connect 48 0 23 0;
#X connect 49 0 48 0;
#X connect 50 0 51 0;
#X connect 50 0 52 0;
#X connect 51 0 34 0;
#X connect 52 0 35 0;
#X connect 53 0 45 0;
#X connect 53 0 17 0;
#X connect 53 0 54 0;
#X connect 55 0 38 0;
#X connect 56 0 57 0;
#X connect 58 0 57 1;
#X restore 23 118 pd gem;
#X connect 1 0 0 0;
